<svg width="1100" height="150" viewBox="0 0 1100 150" fill="none" xmlns="http://www.w3.org/2000/svg">
<path fill-rule="evenodd" clip-rule="evenodd" d="M76 10L20.6154 42.3076L76 74.6153L131.385 42.3076L76 10ZM71.3847 139.231L16 106.612V49.8076L71.3847 82.6924V139.231ZM80.6153 139.231V82.6924L136 49.8076V106.612L80.6153 139.231ZM123.316 90.2974L98.1053 118.576V85.2632L123.316 90.2974ZM54.8971 87.1782C55.4271 86.8768 56.2863 87.3879 56.8161 88.3197L61.1566 95.9526C61.6866 96.8845 61.6866 97.8842 61.1566 98.1855L56.8161 100.654C56.2863 100.955 55.4271 100.444 54.8971 99.5121C54.3671 98.5803 54.3671 97.5805 54.8971 97.279L56.9211 96.1282L52.4937 93.4942C51.5263 92.9187 50.5737 92.6297 49.7208 92.6534C48.8679 92.6771 48.1408 93.0126 47.6039 93.63L46.8582 94.4884C46.4426 94.9668 45.6 94.6618 44.9766 93.8074C44.3529 92.9526 44.1842 91.8721 44.5997 91.3937L45.3458 90.535L45.3461 90.5347C46.1305 89.6324 47.1934 89.1421 48.4403 89.1074C49.6871 89.0729 51.0795 89.495 52.4937 90.3363L56.9211 92.9703L54.8971 89.4111C54.3671 88.4792 54.3671 87.4795 54.8971 87.1782ZM24.1167 75.0326C24.1167 74.1605 24.7243 73.8153 25.4737 74.2611L33.177 78.8439C34.5913 79.6855 35.9837 80.92 37.2305 82.4384C38.4774 83.9566 39.5403 85.7116 40.3247 87.5474V87.5476L43.9471 96.025C43.959 96.0518 43.9703 96.0787 43.9813 96.1055L47.6039 104.584C48.1408 105.84 48.8679 107.041 49.7208 108.079C50.5737 109.118 51.5263 109.963 52.4937 110.538L56.9211 113.172L54.8971 109.613C54.3671 108.681 54.3671 107.681 54.8971 107.38C55.4271 107.079 56.2863 107.59 56.8161 108.522L61.1566 116.154C61.6866 117.086 61.6866 118.086 61.1566 118.387L56.8161 120.856C56.2863 121.157 55.4271 120.646 54.8971 119.714C54.3671 118.782 54.3671 117.782 54.8971 117.481L56.9211 116.33L52.4937 113.696C51.0795 112.855 49.6871 111.62 48.4403 110.102C47.1934 108.583 46.1305 106.829 45.3461 104.993L42.8353 99.1166L40.3247 102.005V102.006C39.5403 102.908 38.4774 103.398 37.2305 103.433C35.9837 103.467 34.5913 103.045 33.177 102.204L25.4737 97.6208C24.7243 97.175 24.1167 96.1066 24.1167 95.2345C24.1167 94.3626 24.7243 94.0171 25.4737 94.4629L33.177 99.0461C34.1444 99.6216 35.0968 99.9103 35.95 99.8866C36.8029 99.8629 37.53 99.5276 38.0666 98.9103L41.2045 95.2997L38.0668 87.9558C37.5303 86.6997 36.8029 85.4992 35.95 84.4608C35.0968 83.4221 34.1445 82.5776 33.177 82.0018L25.4737 77.4189C24.7243 76.9732 24.1167 75.9047 24.1167 75.0326ZM49.9097 44.1221C49.9892 45.1732 50.4789 46.1947 51.3089 47.0413C51.7453 47.4845 52.2647 47.8708 52.8474 48.1858L55.01 49.3592C55.9758 49.8818 57.1053 50.1561 58.2389 50.1426C59.3729 50.1295 60.4534 49.8295 61.3284 49.2853L82.3295 36.2976C82.6411 36.1016 83.0311 35.9984 83.4374 36.0045C83.8437 36.0108 84.2432 36.1258 84.5726 36.3313L93.1339 41.7553C93.7824 42.165 94.5711 42.3961 95.3747 42.4118C96.1787 42.4274 96.9513 42.2268 97.5705 41.8418L102.58 38.7434C102.872 38.5632 103.104 38.3295 103.26 38.06C103.415 37.7908 103.49 37.4929 103.478 37.1895C103.467 36.8861 103.369 36.585 103.192 36.3095C103.015 36.0339 102.764 35.7913 102.459 35.6L92.2655 29.2277C91.6174 28.8211 90.8305 28.5924 90.0292 28.5778C89.2279 28.5632 88.4579 28.7634 87.8403 29.147L66.0455 42.6255C65.7516 42.8103 65.3876 42.9126 65.0053 42.9182C64.6229 42.9237 64.2416 42.8324 63.915 42.6568L58.7924 39.8766C57.7861 39.3326 56.6095 39.0474 55.4284 39.0613C54.2474 39.0755 53.1216 39.3879 52.2103 39.9547C51.4337 40.4355 50.8203 41.0642 50.4203 41.7887C50.0205 42.5132 49.8453 43.3129 49.9097 44.1221Z" fill="white"/>
<path d="M162.453 89.875H173.398C175.648 89.875 177.625 90.2578 179.328 91.0234C181.031 91.7891 182.359 92.9062 183.312 94.375C184.281 95.8438 184.766 97.6484 184.766 99.7891C184.766 101.43 184.414 102.914 183.711 104.242C183.008 105.57 182.055 106.672 180.852 107.547C179.648 108.406 178.289 108.969 176.773 109.234L175.953 109.539H163.367L163.32 107.805H174.359C176.25 107.805 177.82 107.422 179.07 106.656C180.336 105.891 181.281 104.898 181.906 103.68C182.547 102.445 182.867 101.148 182.867 99.7891C182.867 98.0859 182.484 96.6328 181.719 95.4297C180.969 94.2109 179.883 93.2734 178.461 92.6172C177.055 91.9453 175.367 91.6094 173.398 91.6094H164.352V124H162.453V89.875ZM184.18 124L175.039 108.859L177.148 108.836L186.195 123.672V124H184.18ZM208.695 119.336V106.234C208.695 104.906 208.414 103.766 207.852 102.812C207.289 101.859 206.469 101.133 205.391 100.633C204.312 100.117 202.992 99.8594 201.43 99.8594C199.977 99.8594 198.672 100.117 197.516 100.633C196.375 101.133 195.477 101.82 194.82 102.695C194.164 103.57 193.836 104.547 193.836 105.625L191.961 105.602C191.961 104.633 192.188 103.703 192.641 102.812C193.109 101.922 193.766 101.133 194.609 100.445C195.469 99.7422 196.477 99.1875 197.633 98.7812C198.805 98.375 200.086 98.1719 201.477 98.1719C203.258 98.1719 204.828 98.4766 206.188 99.0859C207.562 99.6797 208.633 100.578 209.398 101.781C210.164 102.984 210.547 104.484 210.547 106.281V118.797C210.547 119.703 210.609 120.617 210.734 121.539C210.859 122.461 211.031 123.203 211.25 123.766V124H209.211C209.039 123.406 208.906 122.68 208.812 121.82C208.734 120.961 208.695 120.133 208.695 119.336ZM209.305 109.609L209.352 111.227H203.164C201.602 111.227 200.203 111.375 198.969 111.672C197.734 111.969 196.688 112.391 195.828 112.938C194.969 113.484 194.312 114.133 193.859 114.883C193.406 115.633 193.18 116.477 193.18 117.414C193.18 118.383 193.438 119.273 193.953 120.086C194.469 120.898 195.195 121.547 196.133 122.031C197.07 122.5 198.156 122.734 199.391 122.734C201.078 122.734 202.57 122.445 203.867 121.867C205.18 121.273 206.281 120.477 207.172 119.477C208.062 118.461 208.711 117.289 209.117 115.961L209.938 117.32C209.672 118.148 209.258 118.984 208.695 119.828C208.133 120.672 207.406 121.445 206.516 122.148C205.625 122.836 204.578 123.398 203.375 123.836C202.172 124.258 200.805 124.469 199.273 124.469C197.664 124.469 196.258 124.172 195.055 123.578C193.867 122.969 192.945 122.141 192.289 121.094C191.633 120.031 191.305 118.82 191.305 117.461C191.305 116.289 191.57 115.219 192.102 114.25C192.633 113.281 193.398 112.453 194.398 111.766C195.414 111.062 196.641 110.531 198.078 110.172C199.531 109.797 201.164 109.609 202.977 109.609H209.305ZM220.32 104.055V124H218.469V98.6406H220.297L220.32 104.055ZM219.969 109.375L219.055 108.297C219.195 106.953 219.523 105.672 220.039 104.453C220.57 103.234 221.266 102.156 222.125 101.219C223 100.281 224.016 99.5391 225.172 98.9922C226.344 98.4453 227.633 98.1719 229.039 98.1719C230.305 98.1719 231.438 98.3516 232.438 98.7109C233.438 99.0547 234.281 99.6016 234.969 100.352C235.672 101.102 236.203 102.07 236.562 103.258C236.922 104.43 237.102 105.859 237.102 107.547V124H235.25V107.547C235.25 105.547 234.977 104 234.43 102.906C233.883 101.797 233.117 101.016 232.133 100.562C231.164 100.109 230.031 99.8828 228.734 99.8828C227.234 99.8828 225.938 100.219 224.844 100.891C223.766 101.547 222.875 102.383 222.172 103.398C221.469 104.398 220.93 105.438 220.555 106.516C220.195 107.594 220 108.547 219.969 109.375ZM261.617 119.078V88H263.469V124H261.688L261.617 119.078ZM243.664 111.555V111.062C243.664 109.078 243.883 107.297 244.32 105.719C244.758 104.125 245.391 102.773 246.219 101.664C247.047 100.539 248.055 99.6797 249.242 99.0859C250.445 98.4766 251.805 98.1719 253.32 98.1719C254.742 98.1719 256.008 98.3984 257.117 98.8516C258.227 99.2891 259.188 99.9219 260 100.75C260.812 101.562 261.477 102.523 261.992 103.633C262.523 104.727 262.914 105.938 263.164 107.266V116.008C262.977 117.18 262.625 118.281 262.109 119.312C261.609 120.328 260.945 121.227 260.117 122.008C259.305 122.773 258.328 123.375 257.188 123.812C256.047 124.25 254.742 124.469 253.273 124.469C251.773 124.469 250.43 124.156 249.242 123.531C248.055 122.906 247.047 122.023 246.219 120.883C245.391 119.742 244.758 118.383 244.32 116.805C243.883 115.227 243.664 113.477 243.664 111.555ZM245.562 111.062V111.555C245.562 113.164 245.719 114.648 246.031 116.008C246.359 117.367 246.844 118.547 247.484 119.547C248.141 120.547 248.961 121.328 249.945 121.891C250.945 122.453 252.117 122.734 253.461 122.734C255.18 122.734 256.633 122.422 257.82 121.797C259.008 121.172 259.953 120.344 260.656 119.312C261.375 118.281 261.875 117.141 262.156 115.891V107.617C261.984 106.82 261.711 105.977 261.336 105.086C260.977 104.18 260.469 103.336 259.812 102.555C259.172 101.773 258.336 101.141 257.305 100.656C256.273 100.156 255.008 99.9062 253.508 99.9062C252.148 99.9062 250.969 100.188 249.969 100.75C248.984 101.312 248.164 102.094 247.508 103.094C246.852 104.094 246.359 105.273 246.031 106.633C245.719 107.992 245.562 109.469 245.562 111.062ZM269.469 111.766V110.875C269.469 109.016 269.734 107.312 270.266 105.766C270.812 104.219 271.578 102.883 272.562 101.758C273.547 100.617 274.719 99.7344 276.078 99.1094C277.453 98.4844 278.977 98.1719 280.648 98.1719C282.32 98.1719 283.844 98.4844 285.219 99.1094C286.594 99.7344 287.773 100.617 288.758 101.758C289.758 102.883 290.523 104.219 291.055 105.766C291.586 107.312 291.852 109.016 291.852 110.875V111.766C291.852 113.625 291.586 115.328 291.055 116.875C290.523 118.422 289.766 119.766 288.781 120.906C287.797 122.031 286.617 122.906 285.242 123.531C283.883 124.156 282.367 124.469 280.695 124.469C279.008 124.469 277.477 124.156 276.102 123.531C274.742 122.906 273.562 122.031 272.562 120.906C271.578 119.766 270.812 118.422 270.266 116.875C269.734 115.328 269.469 113.625 269.469 111.766ZM271.344 110.875V111.766C271.344 113.234 271.547 114.633 271.953 115.961C272.375 117.273 272.984 118.445 273.781 119.477C274.578 120.492 275.555 121.297 276.711 121.891C277.867 122.469 279.195 122.758 280.695 122.758C282.164 122.758 283.477 122.469 284.633 121.891C285.789 121.297 286.758 120.492 287.539 119.477C288.336 118.445 288.938 117.273 289.344 115.961C289.766 114.633 289.977 113.234 289.977 111.766V110.875C289.977 109.438 289.766 108.062 289.344 106.75C288.938 105.438 288.336 104.266 287.539 103.234C286.742 102.203 285.766 101.391 284.609 100.797C283.453 100.188 282.133 99.8828 280.648 99.8828C279.164 99.8828 277.844 100.188 276.688 100.797C275.547 101.391 274.57 102.203 273.758 103.234C272.961 104.266 272.359 105.438 271.953 106.75C271.547 108.062 271.344 109.438 271.344 110.875ZM299.539 104.008V124H297.664V98.6406H299.492L299.539 104.008ZM299.234 109.375L298.297 108.297C298.422 106.953 298.734 105.672 299.234 104.453C299.75 103.234 300.43 102.156 301.273 101.219C302.133 100.281 303.141 99.5391 304.297 98.9922C305.469 98.4453 306.773 98.1719 308.211 98.1719C309.477 98.1719 310.609 98.3438 311.609 98.6875C312.625 99.0156 313.484 99.5391 314.188 100.258C314.891 100.961 315.43 101.883 315.805 103.023C316.18 104.164 316.367 105.531 316.367 107.125V124H314.492V107.172C314.492 105.266 314.211 103.789 313.648 102.742C313.086 101.695 312.305 100.961 311.305 100.539C310.305 100.102 309.156 99.8828 307.859 99.8828C306.328 99.8828 305.023 100.219 303.945 100.891C302.867 101.547 301.984 102.383 301.297 103.398C300.625 104.398 300.125 105.438 299.797 106.516C299.469 107.594 299.281 108.547 299.234 109.375ZM316.344 107.289L315.078 106.844C315.203 105.703 315.523 104.617 316.039 103.586C316.57 102.539 317.266 101.617 318.125 100.82C318.984 100.008 319.992 99.3672 321.148 98.8984C322.32 98.4141 323.617 98.1719 325.039 98.1719C326.336 98.1719 327.492 98.3516 328.508 98.7109C329.539 99.0547 330.398 99.6094 331.086 100.375C331.789 101.125 332.328 102.094 332.703 103.281C333.078 104.453 333.266 105.875 333.266 107.547V124H331.391V107.523C331.391 105.523 331.109 103.969 330.547 102.859C329.984 101.75 329.203 100.977 328.203 100.539C327.203 100.086 326.047 99.8672 324.734 99.8828C323.344 99.8984 322.133 100.156 321.102 100.656C320.07 101.156 319.211 101.789 318.523 102.555C317.836 103.32 317.312 104.125 316.953 104.969C316.594 105.797 316.391 106.57 316.344 107.289ZM342.898 98.6406V124H341.023V98.6406H342.898ZM340.438 90.9531C340.438 90.5312 340.578 90.1719 340.859 89.875C341.156 89.5625 341.531 89.4062 341.984 89.4062C342.422 89.4062 342.789 89.5625 343.086 89.875C343.383 90.1719 343.531 90.5312 343.531 90.9531C343.531 91.375 343.383 91.7344 343.086 92.0312C342.789 92.3125 342.422 92.4531 341.984 92.4531C341.531 92.4531 341.156 92.3125 340.859 92.0312C340.578 91.7344 340.438 91.375 340.438 90.9531ZM368.961 122.289V124H349.742V122.289H368.961ZM367.719 100.141L350.305 124H349.133V122.547L366.57 98.6406H367.719V100.141ZM366.875 98.6406V100.375H349.766V98.6406H366.875ZM383.117 124.469C381.523 124.469 380.047 124.164 378.688 123.555C377.328 122.93 376.141 122.062 375.125 120.953C374.109 119.828 373.312 118.5 372.734 116.969C372.172 115.438 371.891 113.758 371.891 111.93V110.898C371.891 109.008 372.172 107.289 372.734 105.742C373.312 104.18 374.094 102.836 375.078 101.711C376.062 100.57 377.195 99.6953 378.477 99.0859C379.773 98.4766 381.156 98.1719 382.625 98.1719C384.109 98.1719 385.453 98.4453 386.656 98.9922C387.859 99.5391 388.891 100.305 389.75 101.289C390.609 102.273 391.266 103.445 391.719 104.805C392.172 106.164 392.398 107.664 392.398 109.305V110.875H373.062V109.164H390.547V108.859C390.531 107.266 390.203 105.789 389.562 104.43C388.938 103.07 388.039 101.977 386.867 101.148C385.695 100.305 384.281 99.8828 382.625 99.8828C381.297 99.8828 380.086 100.164 378.992 100.727C377.914 101.289 376.984 102.07 376.203 103.07C375.422 104.055 374.82 105.219 374.398 106.562C373.977 107.891 373.766 109.336 373.766 110.898V111.93C373.766 113.43 374 114.836 374.469 116.148C374.938 117.461 375.594 118.617 376.438 119.617C377.281 120.602 378.273 121.375 379.414 121.938C380.555 122.5 381.805 122.781 383.164 122.781C384.633 122.781 385.977 122.523 387.195 122.008C388.414 121.492 389.523 120.586 390.523 119.289L391.742 120.203C391.18 121.016 390.5 121.742 389.703 122.383C388.906 123.023 387.961 123.531 386.867 123.906C385.789 124.281 384.539 124.469 383.117 124.469ZM400.039 102.953V124H398.188V98.6406H400.016L400.039 102.953ZM409.695 98.4531L409.578 100.141C409.297 100.094 409.016 100.055 408.734 100.023C408.453 99.9922 408.156 99.9766 407.844 99.9766C406.5 99.9766 405.32 100.242 404.305 100.773C403.305 101.305 402.461 102.031 401.773 102.953C401.102 103.875 400.594 104.945 400.25 106.164C399.906 107.383 399.727 108.688 399.711 110.078L398.797 110.266C398.797 108.531 398.977 106.93 399.336 105.461C399.711 103.992 400.273 102.711 401.023 101.617C401.773 100.523 402.719 99.6797 403.859 99.0859C405 98.4766 406.344 98.1719 407.891 98.1719C408.266 98.1719 408.609 98.2031 408.922 98.2656C409.234 98.3125 409.492 98.375 409.695 98.4531ZM429.711 124H427.859V95.2188C427.859 93.5469 428.133 92.1406 428.68 91C429.242 89.8594 430.039 88.9922 431.07 88.3984C432.117 87.8047 433.367 87.5078 434.82 87.5078C435.305 87.5078 435.805 87.5391 436.32 87.6016C436.836 87.6484 437.336 87.75 437.82 87.9062L437.609 89.5703C437.203 89.4609 436.797 89.3828 436.391 89.3359C436 89.2734 435.508 89.2422 434.914 89.2422C433.836 89.2422 432.906 89.4766 432.125 89.9453C431.359 90.4141 430.766 91.0938 430.344 91.9844C429.922 92.8594 429.711 93.9375 429.711 95.2188V124ZM436.156 98.6406V100.328H423.523V98.6406H436.156ZM450.148 124.469C448.555 124.469 447.078 124.164 445.719 123.555C444.359 122.93 443.172 122.062 442.156 120.953C441.141 119.828 440.344 118.5 439.766 116.969C439.203 115.438 438.922 113.758 438.922 111.93V110.898C438.922 109.008 439.203 107.289 439.766 105.742C440.344 104.18 441.125 102.836 442.109 101.711C443.094 100.57 444.227 99.6953 445.508 99.0859C446.805 98.4766 448.188 98.1719 449.656 98.1719C451.141 98.1719 452.484 98.4453 453.688 98.9922C454.891 99.5391 455.922 100.305 456.781 101.289C457.641 102.273 458.297 103.445 458.75 104.805C459.203 106.164 459.43 107.664 459.43 109.305V110.875H440.094V109.164H457.578V108.859C457.562 107.266 457.234 105.789 456.594 104.43C455.969 103.07 455.07 101.977 453.898 101.148C452.727 100.305 451.312 99.8828 449.656 99.8828C448.328 99.8828 447.117 100.164 446.023 100.727C444.945 101.289 444.016 102.07 443.234 103.07C442.453 104.055 441.852 105.219 441.43 106.562C441.008 107.891 440.797 109.336 440.797 110.898V111.93C440.797 113.43 441.031 114.836 441.5 116.148C441.969 117.461 442.625 118.617 443.469 119.617C444.312 120.602 445.305 121.375 446.445 121.938C447.586 122.5 448.836 122.781 450.195 122.781C451.664 122.781 453.008 122.523 454.227 122.008C455.445 121.492 456.555 120.586 457.555 119.289L458.773 120.203C458.211 121.016 457.531 121.742 456.734 122.383C455.938 123.023 454.992 123.531 453.898 123.906C452.82 124.281 451.57 124.469 450.148 124.469ZM480.945 119.336V106.234C480.945 104.906 480.664 103.766 480.102 102.812C479.539 101.859 478.719 101.133 477.641 100.633C476.562 100.117 475.242 99.8594 473.68 99.8594C472.227 99.8594 470.922 100.117 469.766 100.633C468.625 101.133 467.727 101.82 467.07 102.695C466.414 103.57 466.086 104.547 466.086 105.625L464.211 105.602C464.211 104.633 464.438 103.703 464.891 102.812C465.359 101.922 466.016 101.133 466.859 100.445C467.719 99.7422 468.727 99.1875 469.883 98.7812C471.055 98.375 472.336 98.1719 473.727 98.1719C475.508 98.1719 477.078 98.4766 478.438 99.0859C479.812 99.6797 480.883 100.578 481.648 101.781C482.414 102.984 482.797 104.484 482.797 106.281V118.797C482.797 119.703 482.859 120.617 482.984 121.539C483.109 122.461 483.281 123.203 483.5 123.766V124H481.461C481.289 123.406 481.156 122.68 481.062 121.82C480.984 120.961 480.945 120.133 480.945 119.336ZM481.555 109.609L481.602 111.227H475.414C473.852 111.227 472.453 111.375 471.219 111.672C469.984 111.969 468.938 112.391 468.078 112.938C467.219 113.484 466.562 114.133 466.109 114.883C465.656 115.633 465.43 116.477 465.43 117.414C465.43 118.383 465.688 119.273 466.203 120.086C466.719 120.898 467.445 121.547 468.383 122.031C469.32 122.5 470.406 122.734 471.641 122.734C473.328 122.734 474.82 122.445 476.117 121.867C477.43 121.273 478.531 120.477 479.422 119.477C480.312 118.461 480.961 117.289 481.367 115.961L482.188 117.32C481.922 118.148 481.508 118.984 480.945 119.828C480.383 120.672 479.656 121.445 478.766 122.148C477.875 122.836 476.828 123.398 475.625 123.836C474.422 124.258 473.055 124.469 471.523 124.469C469.914 124.469 468.508 124.172 467.305 123.578C466.117 122.969 465.195 122.141 464.539 121.094C463.883 120.031 463.555 118.82 463.555 117.461C463.555 116.289 463.82 115.219 464.352 114.25C464.883 113.281 465.648 112.453 466.648 111.766C467.664 111.062 468.891 110.531 470.328 110.172C471.781 109.797 473.414 109.609 475.227 109.609H481.555ZM499.719 98.6406V100.328H487.578V98.6406H499.719ZM492.266 91.9375H494.141V117.883C494.141 119.242 494.305 120.273 494.633 120.977C494.977 121.664 495.422 122.133 495.969 122.383C496.531 122.617 497.133 122.734 497.773 122.734C498.227 122.734 498.641 122.711 499.016 122.664C499.406 122.617 499.797 122.562 500.188 122.5L500.352 124.141C500.008 124.25 499.562 124.328 499.016 124.375C498.469 124.438 497.984 124.469 497.562 124.469C496.5 124.469 495.57 124.273 494.773 123.883C493.977 123.492 493.359 122.82 492.922 121.867C492.484 120.898 492.266 119.57 492.266 117.883V91.9375ZM505.531 122.617C505.531 122.195 505.68 121.836 505.977 121.539C506.273 121.227 506.648 121.07 507.102 121.07C507.57 121.07 507.953 121.219 508.25 121.516C508.547 121.812 508.695 122.18 508.695 122.617C508.695 123.055 508.547 123.422 508.25 123.719C507.953 124.016 507.57 124.164 507.102 124.164C506.648 124.164 506.273 124.016 505.977 123.719C505.68 123.422 505.531 123.055 505.531 122.617ZM549.008 115.727C549.008 114.711 548.836 113.805 548.492 113.008C548.148 112.195 547.578 111.477 546.781 110.852C546 110.211 544.969 109.617 543.688 109.07C542.406 108.523 540.828 107.992 538.953 107.477C537.234 107.008 535.68 106.5 534.289 105.953C532.914 105.391 531.734 104.75 530.75 104.031C529.781 103.312 529.039 102.461 528.523 101.477C528.008 100.477 527.75 99.2969 527.75 97.9375C527.75 96.625 528.031 95.4453 528.594 94.3984C529.156 93.3516 529.945 92.4609 530.961 91.7266C531.992 90.9766 533.195 90.4062 534.57 90.0156C535.961 89.6094 537.477 89.4062 539.117 89.4062C541.414 89.4062 543.422 89.8438 545.141 90.7188C546.859 91.5781 548.203 92.7734 549.172 94.3047C550.141 95.8203 550.625 97.5625 550.625 99.5312H548.727C548.727 97.9219 548.328 96.4844 547.531 95.2188C546.75 93.9531 545.641 92.9609 544.203 92.2422C542.781 91.5078 541.086 91.1406 539.117 91.1406C537.086 91.1406 535.359 91.4531 533.938 92.0781C532.531 92.7031 531.461 93.5312 530.727 94.5625C530.008 95.5781 529.648 96.6875 529.648 97.8906C529.648 98.75 529.805 99.5547 530.117 100.305C530.445 101.055 530.977 101.742 531.711 102.367C532.461 102.992 533.469 103.586 534.734 104.148C536.016 104.695 537.609 105.227 539.516 105.742C541.266 106.195 542.836 106.711 544.227 107.289C545.633 107.852 546.836 108.516 547.836 109.281C548.836 110.047 549.602 110.953 550.133 112C550.664 113.047 550.93 114.273 550.93 115.68C550.93 117.07 550.633 118.312 550.039 119.406C549.445 120.484 548.617 121.406 547.555 122.172C546.508 122.922 545.273 123.492 543.852 123.883C542.445 124.273 540.93 124.469 539.305 124.469C537.82 124.469 536.328 124.289 534.828 123.93C533.344 123.57 531.984 122.992 530.75 122.195C529.516 121.398 528.523 120.352 527.773 119.055C527.023 117.758 526.648 116.18 526.648 114.32H528.547C528.547 115.914 528.875 117.258 529.531 118.352C530.188 119.43 531.047 120.289 532.109 120.93C533.172 121.57 534.328 122.031 535.578 122.312C536.844 122.594 538.086 122.734 539.305 122.734C541.211 122.734 542.891 122.445 544.344 121.867C545.812 121.273 546.953 120.453 547.766 119.406C548.594 118.344 549.008 117.117 549.008 115.727ZM558.594 103.516V133.75H556.719V98.6406H558.523L558.594 103.516ZM576.547 111.062V111.555C576.547 113.477 576.328 115.227 575.891 116.805C575.469 118.383 574.844 119.742 574.016 120.883C573.203 122.023 572.203 122.906 571.016 123.531C569.828 124.156 568.477 124.469 566.961 124.469C565.508 124.469 564.203 124.258 563.047 123.836C561.891 123.398 560.891 122.789 560.047 122.008C559.203 121.227 558.523 120.336 558.008 119.336C557.492 118.32 557.133 117.234 556.93 116.078V107.266C557.195 105.938 557.594 104.727 558.125 103.633C558.672 102.523 559.352 101.562 560.164 100.75C560.992 99.9219 561.969 99.2891 563.094 98.8516C564.219 98.3984 565.492 98.1719 566.914 98.1719C568.43 98.1719 569.781 98.4766 570.969 99.0859C572.172 99.6797 573.188 100.539 574.016 101.664C574.844 102.773 575.469 104.125 575.891 105.719C576.328 107.297 576.547 109.078 576.547 111.062ZM574.648 111.555V111.062C574.648 109.469 574.484 107.992 574.156 106.633C573.844 105.273 573.359 104.094 572.703 103.094C572.047 102.094 571.219 101.312 570.219 100.75C569.219 100.188 568.039 99.9062 566.68 99.9062C565.195 99.9062 563.938 100.156 562.906 100.656C561.875 101.141 561.023 101.773 560.352 102.555C559.695 103.336 559.188 104.18 558.828 105.086C558.469 105.977 558.203 106.82 558.031 107.617V115.938C558.312 117.188 558.812 118.328 559.531 119.359C560.25 120.391 561.203 121.219 562.391 121.844C563.594 122.453 565.039 122.758 566.727 122.758C568.086 122.758 569.258 122.477 570.242 121.914C571.227 121.352 572.047 120.57 572.703 119.57C573.359 118.57 573.844 117.391 574.156 116.031C574.484 114.656 574.648 113.164 574.648 111.555ZM581.422 111.766V110.875C581.422 109.016 581.688 107.312 582.219 105.766C582.766 104.219 583.531 102.883 584.516 101.758C585.5 100.617 586.672 99.7344 588.031 99.1094C589.406 98.4844 590.93 98.1719 592.602 98.1719C594.273 98.1719 595.797 98.4844 597.172 99.1094C598.547 99.7344 599.727 100.617 600.711 101.758C601.711 102.883 602.477 104.219 603.008 105.766C603.539 107.312 603.805 109.016 603.805 110.875V111.766C603.805 113.625 603.539 115.328 603.008 116.875C602.477 118.422 601.719 119.766 600.734 120.906C599.75 122.031 598.57 122.906 597.195 123.531C595.836 124.156 594.32 124.469 592.648 124.469C590.961 124.469 589.43 124.156 588.055 123.531C586.695 122.906 585.516 122.031 584.516 120.906C583.531 119.766 582.766 118.422 582.219 116.875C581.688 115.328 581.422 113.625 581.422 111.766ZM583.297 110.875V111.766C583.297 113.234 583.5 114.633 583.906 115.961C584.328 117.273 584.938 118.445 585.734 119.477C586.531 120.492 587.508 121.297 588.664 121.891C589.82 122.469 591.148 122.758 592.648 122.758C594.117 122.758 595.43 122.469 596.586 121.891C597.742 121.297 598.711 120.492 599.492 119.477C600.289 118.445 600.891 117.273 601.297 115.961C601.719 114.633 601.93 113.234 601.93 111.766V110.875C601.93 109.438 601.719 108.062 601.297 106.75C600.891 105.438 600.289 104.266 599.492 103.234C598.695 102.203 597.719 101.391 596.562 100.797C595.406 100.188 594.086 99.8828 592.602 99.8828C591.117 99.8828 589.797 100.188 588.641 100.797C587.5 101.391 586.523 102.203 585.711 103.234C584.914 104.266 584.312 105.438 583.906 106.75C583.5 108.062 583.297 109.438 583.297 110.875ZM618.828 98.6406V100.328H606.688V98.6406H618.828ZM611.375 91.9375H613.25V117.883C613.25 119.242 613.414 120.273 613.742 120.977C614.086 121.664 614.531 122.133 615.078 122.383C615.641 122.617 616.242 122.734 616.883 122.734C617.336 122.734 617.75 122.711 618.125 122.664C618.516 122.617 618.906 122.562 619.297 122.5L619.461 124.141C619.117 124.25 618.672 124.328 618.125 124.375C617.578 124.438 617.094 124.469 616.672 124.469C615.609 124.469 614.68 124.273 613.883 123.883C613.086 123.492 612.469 122.82 612.031 121.867C611.594 120.898 611.375 119.57 611.375 117.883V91.9375ZM627.289 98.6406V124H625.414V98.6406H627.289ZM624.828 90.9531C624.828 90.5312 624.969 90.1719 625.25 89.875C625.547 89.5625 625.922 89.4062 626.375 89.4062C626.812 89.4062 627.18 89.5625 627.477 89.875C627.773 90.1719 627.922 90.5312 627.922 90.9531C627.922 91.375 627.773 91.7344 627.477 92.0312C627.18 92.3125 626.812 92.4531 626.375 92.4531C625.922 92.4531 625.547 92.3125 625.25 92.0312C624.969 91.7344 624.828 91.375 624.828 90.9531ZM639.195 124H637.344V95.2188C637.344 93.5469 637.617 92.1406 638.164 91C638.727 89.8594 639.523 88.9922 640.555 88.3984C641.602 87.8047 642.852 87.5078 644.305 87.5078C644.789 87.5078 645.289 87.5391 645.805 87.6016C646.32 87.6484 646.82 87.75 647.305 87.9062L647.094 89.5703C646.688 89.4609 646.281 89.3828 645.875 89.3359C645.484 89.2734 644.992 89.2422 644.398 89.2422C643.32 89.2422 642.391 89.4766 641.609 89.9453C640.844 90.4141 640.25 91.0938 639.828 91.9844C639.406 92.8594 639.195 93.9375 639.195 95.2188V124ZM645.641 98.6406V100.328H633.008V98.6406H645.641ZM658.555 121.516L666.992 98.6406H669.031L657.969 128.148C657.766 128.711 657.508 129.336 657.195 130.023C656.883 130.727 656.477 131.398 655.977 132.039C655.477 132.68 654.828 133.203 654.031 133.609C653.25 134.031 652.281 134.242 651.125 134.242C650.859 134.242 650.508 134.211 650.07 134.148C649.648 134.102 649.336 134.039 649.133 133.961L649.109 132.32C649.328 132.367 649.617 132.406 649.977 132.438C650.336 132.484 650.586 132.508 650.727 132.508C651.758 132.508 652.617 132.305 653.305 131.898C654.008 131.508 654.594 130.945 655.062 130.211C655.531 129.492 655.945 128.641 656.305 127.656L658.555 121.516ZM649.859 98.6406L658.859 121.68L659.398 123.602L657.969 124.492L647.82 98.6406H649.859Z" fill="white"/>
<path d="M170.363 28.3438V71H161.838V28.3438H170.363ZM215.188 63.9102V71H197.463V63.9102H215.188ZM200.1 28.3438V71H191.516V28.3438H200.1ZM228.43 39.3008V71H220.197V39.3008H228.43ZM219.816 31.0977C219.816 29.8281 220.217 28.7832 221.018 27.9629C221.838 27.123 222.932 26.7031 224.299 26.7031C225.686 26.7031 226.779 27.123 227.58 27.9629C228.381 28.7832 228.781 29.8281 228.781 31.0977C228.781 32.3477 228.371 33.3926 227.551 34.2324C226.75 35.0527 225.676 35.4629 224.328 35.4629C222.941 35.4629 221.838 35.0527 221.018 34.2324C220.217 33.3926 219.816 32.3477 219.816 31.0977ZM248.996 62.4453C248.996 61.8984 248.811 61.4102 248.439 60.9805C248.068 60.5508 247.482 60.1113 246.682 59.6621C245.881 59.1934 244.816 58.6758 243.488 58.1094C242.043 57.5234 240.764 56.918 239.65 56.293C238.537 55.668 237.59 54.9746 236.809 54.2129C236.047 53.4512 235.471 52.582 235.08 51.6055C234.689 50.6289 234.494 49.5156 234.494 48.2656C234.494 46.918 234.738 45.6777 235.227 44.5449C235.734 43.3926 236.457 42.3867 237.395 41.5273C238.332 40.6484 239.475 39.9648 240.822 39.4766C242.189 38.9688 243.723 38.7148 245.422 38.7148C247.805 38.7148 249.846 39.1348 251.545 39.9746C253.264 40.7949 254.582 41.9473 255.5 43.4316C256.418 44.916 256.877 46.6445 256.877 48.6172H248.674C248.674 47.9141 248.566 47.2891 248.352 46.7422C248.137 46.1758 247.785 45.7363 247.297 45.4238C246.828 45.1113 246.193 44.9551 245.393 44.9551C244.807 44.9551 244.279 45.082 243.811 45.3359C243.361 45.5898 243 45.9316 242.727 46.3613C242.473 46.7715 242.346 47.2598 242.346 47.8262C242.346 48.2559 242.434 48.6367 242.609 48.9688C242.805 49.3008 243.107 49.623 243.518 49.9355C243.928 50.248 244.475 50.5801 245.158 50.9316C245.861 51.2637 246.721 51.6348 247.736 52.0449C249.846 52.8262 251.574 53.666 252.922 54.5645C254.289 55.4629 255.305 56.5176 255.969 57.7285C256.633 58.9199 256.965 60.3945 256.965 62.1523C256.965 63.5586 256.691 64.8379 256.145 65.9902C255.617 67.1426 254.846 68.1387 253.83 68.9785C252.814 69.8184 251.594 70.4629 250.168 70.9121C248.762 71.3613 247.189 71.5859 245.451 71.5859C242.893 71.5859 240.734 71.0781 238.977 70.0625C237.219 69.0469 235.891 67.748 234.992 66.166C234.094 64.5645 233.645 62.9043 233.645 61.1855H241.438C241.477 62.2402 241.672 63.0703 242.023 63.6758C242.395 64.2617 242.893 64.6719 243.518 64.9062C244.143 65.1406 244.836 65.2578 245.598 65.2578C246.359 65.2578 246.984 65.1602 247.473 64.9648C247.98 64.75 248.361 64.4277 248.615 63.998C248.869 63.5488 248.996 63.0312 248.996 62.4453ZM276.008 39.3008V45.4824H259.836V39.3008H276.008ZM263.557 31.4785H271.73V61.332C271.73 62.2109 271.818 62.8848 271.994 63.3535C272.17 63.8223 272.434 64.1543 272.785 64.3496C273.156 64.5254 273.645 64.6133 274.25 64.6133C274.66 64.6133 275.041 64.5938 275.393 64.5547C275.744 64.4961 276.008 64.4375 276.184 64.3789V70.7949C275.539 71.0488 274.855 71.2441 274.133 71.3809C273.43 71.5176 272.59 71.5859 271.613 71.5859C269.973 71.5859 268.547 71.2734 267.336 70.6484C266.145 70.0234 265.217 69.0273 264.553 67.6602C263.889 66.2734 263.557 64.457 263.557 62.2109V31.4785ZM293.352 71.5859C291.184 71.5859 289.26 71.2539 287.58 70.5898C285.92 69.9258 284.514 68.9688 283.361 67.7188C282.209 66.4492 281.33 64.916 280.725 63.1191C280.119 61.3223 279.816 59.2715 279.816 56.9668V54.3594C279.816 51.7812 280.109 49.5254 280.695 47.5918C281.281 45.6387 282.111 43.998 283.186 42.6699C284.26 41.3418 285.578 40.3555 287.141 39.7109C288.723 39.0469 290.51 38.7148 292.502 38.7148C294.494 38.7148 296.242 39.0469 297.746 39.7109C299.27 40.3555 300.529 41.332 301.525 42.6406C302.521 43.9297 303.273 45.5312 303.781 47.4453C304.289 49.3594 304.543 51.5859 304.543 54.125V57.875H283.303V52.1035H296.486V51.3711C296.486 50.082 296.35 49.0078 296.076 48.1484C295.803 47.2695 295.373 46.6152 294.787 46.1855C294.201 45.7559 293.42 45.541 292.443 45.541C291.623 45.541 290.93 45.707 290.363 46.0391C289.797 46.3711 289.348 46.8887 289.016 47.5918C288.684 48.2949 288.439 49.2129 288.283 50.3457C288.127 51.459 288.049 52.7969 288.049 54.3594V56.9668C288.049 58.4316 288.176 59.6621 288.43 60.6582C288.684 61.6348 289.055 62.4355 289.543 63.0605C290.051 63.666 290.666 64.1055 291.389 64.3789C292.111 64.6328 292.951 64.7598 293.908 64.7598C295.354 64.7598 296.652 64.5059 297.805 63.998C298.977 63.4707 299.973 62.7578 300.793 61.8594L304.074 66.8398C303.508 67.582 302.727 68.3242 301.73 69.0664C300.734 69.8086 299.543 70.4141 298.156 70.8828C296.77 71.3516 295.168 71.5859 293.352 71.5859ZM317.346 46.0684V71H309.113V39.3008H316.818L317.346 46.0684ZM316.115 54.0664L313.918 54.125C313.879 51.7422 314.104 49.6035 314.592 47.709C315.1 45.8145 315.812 44.2031 316.73 42.875C317.668 41.5273 318.781 40.502 320.07 39.7988C321.379 39.0762 322.834 38.7148 324.436 38.7148C325.666 38.7148 326.789 38.9297 327.805 39.3594C328.84 39.7891 329.729 40.4727 330.471 41.4102C331.213 42.3477 331.789 43.5977 332.199 45.1602C332.609 46.7031 332.814 48.5977 332.814 50.8438V71H324.582V50.7852C324.582 49.418 324.445 48.3633 324.172 47.6211C323.898 46.8594 323.488 46.332 322.941 46.0391C322.395 45.7266 321.711 45.5703 320.891 45.5703C320.109 45.5703 319.416 45.7949 318.811 46.2441C318.205 46.6738 317.697 47.2695 317.287 48.0312C316.896 48.793 316.594 49.6914 316.379 50.7266C316.184 51.7617 316.096 52.875 316.115 54.0664ZM366.477 39.3008V45.4824H350.305V39.3008H366.477ZM354.025 31.4785H362.199V61.332C362.199 62.2109 362.287 62.8848 362.463 63.3535C362.639 63.8223 362.902 64.1543 363.254 64.3496C363.625 64.5254 364.113 64.6133 364.719 64.6133C365.129 64.6133 365.51 64.5938 365.861 64.5547C366.213 64.4961 366.477 64.4375 366.652 64.3789V70.7949C366.008 71.0488 365.324 71.2441 364.602 71.3809C363.898 71.5176 363.059 71.5859 362.082 71.5859C360.441 71.5859 359.016 71.2734 357.805 70.6484C356.613 70.0234 355.686 69.0273 355.021 67.6602C354.357 66.2734 354.025 64.457 354.025 62.2109V31.4785ZM369.23 56.2344V54.0957C369.23 51.6152 369.523 49.418 370.109 47.5039C370.715 45.5898 371.574 43.9883 372.688 42.6992C373.801 41.3906 375.139 40.4043 376.701 39.7402C378.283 39.0566 380.051 38.7148 382.004 38.7148C383.977 38.7148 385.744 39.0566 387.307 39.7402C388.889 40.4043 390.236 41.3906 391.35 42.6992C392.482 43.9883 393.352 45.5898 393.957 47.5039C394.562 49.418 394.865 51.6152 394.865 54.0957V56.2344C394.865 58.6953 394.562 60.8828 393.957 62.7969C393.352 64.7109 392.482 66.3223 391.35 67.6309C390.236 68.9395 388.898 69.9258 387.336 70.5898C385.773 71.2539 384.016 71.5859 382.062 71.5859C380.109 71.5859 378.342 71.2539 376.76 70.5898C375.197 69.9258 373.85 68.9395 372.717 67.6309C371.584 66.3223 370.715 64.7109 370.109 62.7969C369.523 60.8828 369.23 58.6953 369.23 56.2344ZM377.434 54.0957V56.2344C377.434 57.6992 377.531 58.9688 377.727 60.043C377.941 61.1172 378.244 62.0059 378.635 62.709C379.045 63.4121 379.533 63.9297 380.1 64.2617C380.666 64.5938 381.32 64.7598 382.062 64.7598C382.805 64.7598 383.469 64.5938 384.055 64.2617C384.641 63.9297 385.119 63.4121 385.49 62.709C385.881 62.0059 386.164 61.1172 386.34 60.043C386.535 58.9688 386.633 57.6992 386.633 56.2344V54.0957C386.633 52.6699 386.525 51.4199 386.311 50.3457C386.096 49.252 385.793 48.3633 385.402 47.6797C385.012 46.9766 384.523 46.4492 383.938 46.0977C383.371 45.7266 382.727 45.541 382.004 45.541C381.281 45.541 380.637 45.7266 380.07 46.0977C379.523 46.4492 379.045 46.9766 378.635 47.6797C378.244 48.3633 377.941 49.252 377.727 50.3457C377.531 51.4199 377.434 52.6699 377.434 54.0957ZM429.729 35.9609L420.559 71H411.506L424.836 28.3438H430.49L429.729 35.9609ZM436.965 71L427.736 35.9609L426.887 28.3438H432.629L446.076 71H436.965ZM437.287 55.0918V62.2109H418.039V55.0918H437.287ZM458.352 26V71H450.119V26H458.352ZM473.469 26V71H465.236V26H473.469ZM502.795 28.3438V71H494.211V28.3438H502.795ZM523.977 28.3438L510.148 49.5254L501.682 60.0723L500.041 51.4883L505.52 42.3477L513.547 28.3438H523.977ZM514.074 71L504.758 51.4004L511.057 45.834L524.182 71H514.074ZM535.637 39.3008V71H527.404V39.3008H535.637ZM527.023 31.0977C527.023 29.8281 527.424 28.7832 528.225 27.9629C529.045 27.123 530.139 26.7031 531.506 26.7031C532.893 26.7031 533.986 27.123 534.787 27.9629C535.588 28.7832 535.988 29.8281 535.988 31.0977C535.988 32.3477 535.578 33.3926 534.758 34.2324C533.957 35.0527 532.883 35.4629 531.535 35.4629C530.148 35.4629 529.045 35.0527 528.225 34.2324C527.424 33.3926 527.023 32.3477 527.023 31.0977ZM550.197 46.0684V71H541.965V39.3008H549.67L550.197 46.0684ZM548.967 54.0664L546.77 54.125C546.73 51.7422 546.955 49.6035 547.443 47.709C547.951 45.8145 548.664 44.2031 549.582 42.875C550.52 41.5273 551.633 40.502 552.922 39.7988C554.23 39.0762 555.686 38.7148 557.287 38.7148C558.518 38.7148 559.641 38.9297 560.656 39.3594C561.691 39.7891 562.58 40.4727 563.322 41.4102C564.064 42.3477 564.641 43.5977 565.051 45.1602C565.461 46.7031 565.666 48.5977 565.666 50.8438V71H557.434V50.7852C557.434 49.418 557.297 48.3633 557.023 47.6211C556.75 46.8594 556.34 46.332 555.793 46.0391C555.246 45.7266 554.562 45.5703 553.742 45.5703C552.961 45.5703 552.268 45.7949 551.662 46.2441C551.057 46.6738 550.549 47.2695 550.139 48.0312C549.748 48.793 549.445 49.6914 549.23 50.7266C549.035 51.7617 548.947 52.875 548.967 54.0664ZM587.023 63.998V26H595.256V71L587.814 71.0293L587.023 63.998ZM570.588 56.2637V54.1543C570.588 51.5762 570.803 49.3203 571.232 47.3867C571.682 45.4531 572.346 43.8418 573.225 42.5527C574.104 41.2637 575.178 40.3066 576.447 39.6816C577.736 39.0371 579.211 38.7148 580.871 38.7148C582.375 38.7148 583.693 39.0957 584.826 39.8574C585.979 40.5996 586.955 41.6445 587.756 42.9922C588.557 44.3398 589.201 45.9316 589.689 47.7676C590.178 49.6035 590.52 51.6152 590.715 53.8027V56.8496C590.48 58.9199 590.119 60.8535 589.631 62.6504C589.162 64.4473 588.518 66.0098 587.697 67.3379C586.896 68.666 585.93 69.7109 584.797 70.4727C583.664 71.2148 582.346 71.5859 580.842 71.5859C579.182 71.5859 577.707 71.2539 576.418 70.5898C575.148 69.9258 574.074 68.9492 573.195 67.6602C572.336 66.3516 571.682 64.75 571.232 62.8555C570.803 60.9414 570.588 58.7441 570.588 56.2637ZM578.791 54.1543V56.2637C578.791 57.748 578.859 59.0273 578.996 60.1016C579.152 61.1562 579.396 62.0254 579.729 62.709C580.08 63.373 580.539 63.8711 581.105 64.2031C581.672 64.5156 582.375 64.6719 583.215 64.6719C584.309 64.6719 585.197 64.3984 585.881 63.8516C586.564 63.2852 587.072 62.5137 587.404 61.5371C587.756 60.541 587.951 59.3984 587.99 58.1094V52.5723C587.951 51.498 587.824 50.5312 587.609 49.6719C587.395 48.8125 587.092 48.0801 586.701 47.4746C586.311 46.8691 585.822 46.4004 585.236 46.0684C584.67 45.7363 584.006 45.5703 583.244 45.5703C582.424 45.5703 581.721 45.7363 581.135 46.0684C580.568 46.4004 580.119 46.918 579.787 47.6211C579.455 48.3047 579.201 49.1934 579.025 50.2871C578.869 51.3613 578.791 52.6504 578.791 54.1543ZM615.5 62.4453C615.5 61.8984 615.314 61.4102 614.943 60.9805C614.572 60.5508 613.986 60.1113 613.186 59.6621C612.385 59.1934 611.32 58.6758 609.992 58.1094C608.547 57.5234 607.268 56.918 606.154 56.293C605.041 55.668 604.094 54.9746 603.312 54.2129C602.551 53.4512 601.975 52.582 601.584 51.6055C601.193 50.6289 600.998 49.5156 600.998 48.2656C600.998 46.918 601.242 45.6777 601.73 44.5449C602.238 43.3926 602.961 42.3867 603.898 41.5273C604.836 40.6484 605.979 39.9648 607.326 39.4766C608.693 38.9688 610.227 38.7148 611.926 38.7148C614.309 38.7148 616.35 39.1348 618.049 39.9746C619.768 40.7949 621.086 41.9473 622.004 43.4316C622.922 44.916 623.381 46.6445 623.381 48.6172H615.178C615.178 47.9141 615.07 47.2891 614.855 46.7422C614.641 46.1758 614.289 45.7363 613.801 45.4238C613.332 45.1113 612.697 44.9551 611.896 44.9551C611.311 44.9551 610.783 45.082 610.314 45.3359C609.865 45.5898 609.504 45.9316 609.23 46.3613C608.977 46.7715 608.85 47.2598 608.85 47.8262C608.85 48.2559 608.938 48.6367 609.113 48.9688C609.309 49.3008 609.611 49.623 610.021 49.9355C610.432 50.248 610.979 50.5801 611.662 50.9316C612.365 51.2637 613.225 51.6348 614.24 52.0449C616.35 52.8262 618.078 53.666 619.426 54.5645C620.793 55.4629 621.809 56.5176 622.473 57.7285C623.137 58.9199 623.469 60.3945 623.469 62.1523C623.469 63.5586 623.195 64.8379 622.648 65.9902C622.121 67.1426 621.35 68.1387 620.334 68.9785C619.318 69.8184 618.098 70.4629 616.672 70.9121C615.266 71.3613 613.693 71.5859 611.955 71.5859C609.396 71.5859 607.238 71.0781 605.48 70.0625C603.723 69.0469 602.395 67.748 601.496 66.166C600.598 64.5645 600.148 62.9043 600.148 61.1855H607.941C607.98 62.2402 608.176 63.0703 608.527 63.6758C608.898 64.2617 609.396 64.6719 610.021 64.9062C610.646 65.1406 611.34 65.2578 612.102 65.2578C612.863 65.2578 613.488 65.1602 613.977 64.9648C614.484 64.75 614.865 64.4277 615.119 63.998C615.373 63.5488 615.5 63.0312 615.5 62.4453ZM641.574 56.2344V54.0957C641.574 51.6152 641.867 49.418 642.453 47.5039C643.059 45.5898 643.918 43.9883 645.031 42.6992C646.145 41.3906 647.482 40.4043 649.045 39.7402C650.627 39.0566 652.395 38.7148 654.348 38.7148C656.32 38.7148 658.088 39.0566 659.65 39.7402C661.232 40.4043 662.58 41.3906 663.693 42.6992C664.826 43.9883 665.695 45.5898 666.301 47.5039C666.906 49.418 667.209 51.6152 667.209 54.0957V56.2344C667.209 58.6953 666.906 60.8828 666.301 62.7969C665.695 64.7109 664.826 66.3223 663.693 67.6309C662.58 68.9395 661.242 69.9258 659.68 70.5898C658.117 71.2539 656.359 71.5859 654.406 71.5859C652.453 71.5859 650.686 71.2539 649.104 70.5898C647.541 69.9258 646.193 68.9395 645.061 67.6309C643.928 66.3223 643.059 64.7109 642.453 62.7969C641.867 60.8828 641.574 58.6953 641.574 56.2344ZM649.777 54.0957V56.2344C649.777 57.6992 649.875 58.9688 650.07 60.043C650.285 61.1172 650.588 62.0059 650.979 62.709C651.389 63.4121 651.877 63.9297 652.443 64.2617C653.01 64.5938 653.664 64.7598 654.406 64.7598C655.148 64.7598 655.812 64.5938 656.398 64.2617C656.984 63.9297 657.463 63.4121 657.834 62.709C658.225 62.0059 658.508 61.1172 658.684 60.043C658.879 58.9688 658.977 57.6992 658.977 56.2344V54.0957C658.977 52.6699 658.869 51.4199 658.654 50.3457C658.439 49.252 658.137 48.3633 657.746 47.6797C657.355 46.9766 656.867 46.4492 656.281 46.0977C655.715 45.7266 655.07 45.541 654.348 45.541C653.625 45.541 652.98 45.7266 652.414 46.0977C651.867 46.4492 651.389 46.9766 650.979 47.6797C650.588 48.3633 650.285 49.252 650.07 50.3457C649.875 51.4199 649.777 52.6699 649.777 54.0957ZM682.561 71H674.328V36.5469C674.328 34.1055 674.748 32.0645 675.588 30.4238C676.428 28.7832 677.609 27.5332 679.133 26.6738C680.676 25.8145 682.502 25.3848 684.611 25.3848C685.295 25.3848 685.939 25.4434 686.545 25.5605C687.17 25.6582 687.775 25.7949 688.361 25.9707L688.273 32.5039C688.02 32.4258 687.717 32.3672 687.365 32.3281C687.014 32.2891 686.643 32.2695 686.252 32.2695C685.471 32.2695 684.797 32.4355 684.23 32.7676C683.684 33.0996 683.264 33.5781 682.971 34.2031C682.697 34.8281 682.561 35.6094 682.561 36.5469V71ZM687.512 39.3008V45.4824H670.461V39.3008H687.512ZM709.367 28.3438H716.896L725.598 57.5234L734.27 28.3438H740.92L728.791 71H722.375L709.367 28.3438ZM706.32 28.3438H713.498L714.611 56.4688V71H706.32V28.3438ZM737.639 28.3438H744.846V71H736.584V56.4688L737.639 28.3438ZM766.76 63.3828V39.3008H774.992V71H767.258L766.76 63.3828ZM767.697 56.8496L769.982 56.791C769.982 58.9199 769.777 60.8926 769.367 62.709C768.957 64.5059 768.342 66.0684 767.521 67.3965C766.701 68.7246 765.676 69.7598 764.445 70.502C763.215 71.2246 761.76 71.5859 760.08 71.5859C758.791 71.5859 757.6 71.3711 756.506 70.9414C755.432 70.4922 754.504 69.7988 753.723 68.8613C752.941 67.9043 752.326 66.6836 751.877 65.1992C751.447 63.6953 751.232 61.8887 751.232 59.7793V39.3008H759.465V59.8672C759.465 60.7266 759.543 61.4688 759.699 62.0938C759.855 62.6992 760.07 63.1973 760.344 63.5879C760.617 63.9785 760.939 64.2617 761.311 64.4375C761.682 64.5938 762.102 64.6719 762.57 64.6719C763.859 64.6719 764.875 64.3398 765.617 63.6758C766.379 62.9922 766.916 62.0645 767.229 60.8926C767.541 59.7012 767.697 58.3535 767.697 56.8496ZM795.031 62.4453C795.031 61.8984 794.846 61.4102 794.475 60.9805C794.104 60.5508 793.518 60.1113 792.717 59.6621C791.916 59.1934 790.852 58.6758 789.523 58.1094C788.078 57.5234 786.799 56.918 785.686 56.293C784.572 55.668 783.625 54.9746 782.844 54.2129C782.082 53.4512 781.506 52.582 781.115 51.6055C780.725 50.6289 780.529 49.5156 780.529 48.2656C780.529 46.918 780.773 45.6777 781.262 44.5449C781.77 43.3926 782.492 42.3867 783.43 41.5273C784.367 40.6484 785.51 39.9648 786.857 39.4766C788.225 38.9688 789.758 38.7148 791.457 38.7148C793.84 38.7148 795.881 39.1348 797.58 39.9746C799.299 40.7949 800.617 41.9473 801.535 43.4316C802.453 44.916 802.912 46.6445 802.912 48.6172H794.709C794.709 47.9141 794.602 47.2891 794.387 46.7422C794.172 46.1758 793.82 45.7363 793.332 45.4238C792.863 45.1113 792.229 44.9551 791.428 44.9551C790.842 44.9551 790.314 45.082 789.846 45.3359C789.396 45.5898 789.035 45.9316 788.762 46.3613C788.508 46.7715 788.381 47.2598 788.381 47.8262C788.381 48.2559 788.469 48.6367 788.645 48.9688C788.84 49.3008 789.143 49.623 789.553 49.9355C789.963 50.248 790.51 50.5801 791.193 50.9316C791.896 51.2637 792.756 51.6348 793.771 52.0449C795.881 52.8262 797.609 53.666 798.957 54.5645C800.324 55.4629 801.34 56.5176 802.004 57.7285C802.668 58.9199 803 60.3945 803 62.1523C803 63.5586 802.727 64.8379 802.18 65.9902C801.652 67.1426 800.881 68.1387 799.865 68.9785C798.85 69.8184 797.629 70.4629 796.203 70.9121C794.797 71.3613 793.225 71.5859 791.486 71.5859C788.928 71.5859 786.77 71.0781 785.012 70.0625C783.254 69.0469 781.926 67.748 781.027 66.166C780.129 64.5645 779.68 62.9043 779.68 61.1855H787.473C787.512 62.2402 787.707 63.0703 788.059 63.6758C788.43 64.2617 788.928 64.6719 789.553 64.9062C790.178 65.1406 790.871 65.2578 791.633 65.2578C792.395 65.2578 793.02 65.1602 793.508 64.9648C794.016 64.75 794.396 64.4277 794.65 63.998C794.904 63.5488 795.031 63.0312 795.031 62.4453ZM816.828 39.3008V71H808.596V39.3008H816.828ZM808.215 31.0977C808.215 29.8281 808.615 28.7832 809.416 27.9629C810.236 27.123 811.33 26.7031 812.697 26.7031C814.084 26.7031 815.178 27.123 815.979 27.9629C816.779 28.7832 817.18 29.8281 817.18 31.0977C817.18 32.3477 816.77 33.3926 815.949 34.2324C815.148 35.0527 814.074 35.4629 812.727 35.4629C811.34 35.4629 810.236 35.0527 809.416 34.2324C808.615 33.3926 808.215 32.3477 808.215 31.0977ZM834.787 64.7598C835.549 64.7598 836.203 64.6035 836.75 64.291C837.316 63.9785 837.746 63.4707 838.039 62.7676C838.332 62.0645 838.488 61.1562 838.508 60.043H846.213C846.213 62.4258 845.705 64.4863 844.689 66.2246C843.693 67.9434 842.346 69.2715 840.646 70.209C838.967 71.127 837.062 71.5859 834.934 71.5859C832.805 71.5859 830.949 71.2441 829.367 70.5605C827.785 69.877 826.477 68.8809 825.441 67.5723C824.426 66.2637 823.654 64.6719 823.127 62.7969C822.619 60.9023 822.365 58.7344 822.365 56.293V53.9785C822.365 51.5762 822.619 49.4277 823.127 47.5332C823.654 45.6387 824.426 44.0371 825.441 42.7285C826.477 41.4199 827.775 40.4238 829.338 39.7402C830.92 39.0566 832.775 38.7148 834.904 38.7148C837.189 38.7148 839.172 39.1934 840.852 40.1504C842.531 41.0879 843.84 42.4746 844.777 44.3105C845.734 46.1465 846.213 48.4121 846.213 51.1074H838.508C838.488 49.8965 838.342 48.8906 838.068 48.0898C837.814 47.2695 837.414 46.6445 836.867 46.2148C836.34 45.7656 835.637 45.541 834.758 45.541C833.84 45.541 833.098 45.7363 832.531 46.127C831.984 46.498 831.564 47.0449 831.271 47.7676C830.998 48.4707 830.812 49.3496 830.715 50.4043C830.617 51.459 830.568 52.6504 830.568 53.9785V56.293C830.568 57.7188 830.607 58.959 830.686 60.0137C830.783 61.0488 830.969 61.9277 831.242 62.6504C831.535 63.3535 831.955 63.8809 832.502 64.2324C833.068 64.584 833.83 64.7598 834.787 64.7598Z" fill="white"/>
</svg>
