<svg width="1100" height="150" viewBox="0 0 1100 150" fill="none" xmlns="http://www.w3.org/2000/svg">
<path fill-rule="evenodd" clip-rule="evenodd" d="M76 10L20.6154 42.3076L76 74.6153L131.385 42.3076L76 10ZM71.3847 139.231L16 106.612V49.8076L71.3847 82.6924V139.231ZM80.6153 139.231V82.6924L136 49.8076V106.612L80.6153 139.231ZM123.316 90.2974L98.1053 118.576V85.2632L123.316 90.2974ZM54.8971 87.1782C55.4271 86.8768 56.2863 87.3879 56.8161 88.3197L61.1566 95.9526C61.6866 96.8845 61.6866 97.8842 61.1566 98.1855L56.8161 100.654C56.2863 100.955 55.4271 100.444 54.8971 99.5121C54.3671 98.5803 54.3671 97.5805 54.8971 97.279L56.9211 96.1282L52.4937 93.4942C51.5263 92.9187 50.5737 92.6297 49.7208 92.6534C48.8679 92.6771 48.1408 93.0126 47.6039 93.63L46.8582 94.4884C46.4426 94.9668 45.6 94.6618 44.9766 93.8074C44.3529 92.9526 44.1842 91.8721 44.5997 91.3937L45.3458 90.535L45.3461 90.5347C46.1305 89.6324 47.1934 89.1421 48.4403 89.1074C49.6871 89.0729 51.0795 89.495 52.4937 90.3363L56.9211 92.9703L54.8971 89.4111C54.3671 88.4792 54.3671 87.4795 54.8971 87.1782ZM24.1167 75.0326C24.1167 74.1605 24.7243 73.8153 25.4737 74.2611L33.177 78.8439C34.5913 79.6855 35.9837 80.92 37.2305 82.4384C38.4774 83.9566 39.5403 85.7116 40.3247 87.5474V87.5476L43.9471 96.025C43.959 96.0518 43.9703 96.0787 43.9813 96.1055L47.6039 104.584C48.1408 105.84 48.8679 107.041 49.7208 108.079C50.5737 109.118 51.5263 109.963 52.4937 110.538L56.9211 113.172L54.8971 109.613C54.3671 108.681 54.3671 107.681 54.8971 107.38C55.4271 107.079 56.2863 107.59 56.8161 108.522L61.1566 116.154C61.6866 117.086 61.6866 118.086 61.1566 118.387L56.8161 120.856C56.2863 121.157 55.4271 120.646 54.8971 119.714C54.3671 118.782 54.3671 117.782 54.8971 117.481L56.9211 116.33L52.4937 113.696C51.0795 112.855 49.6871 111.62 48.4403 110.102C47.1934 108.583 46.1305 106.829 45.3461 104.993L42.8353 99.1166L40.3247 102.005V102.006C39.5403 102.908 38.4774 103.398 37.2305 103.433C35.9837 103.467 34.5913 103.045 33.177 102.204L25.4737 97.6208C24.7243 97.175 24.1167 96.1066 24.1167 95.2345C24.1167 94.3626 24.7243 94.0171 25.4737 94.4629L33.177 99.0461C34.1444 99.6216 35.0968 99.9103 35.95 99.8866C36.8029 99.8629 37.53 99.5276 38.0666 98.9103L41.2045 95.2997L38.0668 87.9558C37.5303 86.6997 36.8029 85.4992 35.95 84.4608C35.0968 83.4221 34.1445 82.5776 33.177 82.0018L25.4737 77.4189C24.7243 76.9732 24.1167 75.9047 24.1167 75.0326ZM49.9097 44.1221C49.9892 45.1732 50.4789 46.1947 51.3089 47.0413C51.7453 47.4845 52.2647 47.8708 52.8474 48.1858L55.01 49.3592C55.9758 49.8818 57.1053 50.1561 58.2389 50.1426C59.3729 50.1295 60.4534 49.8295 61.3284 49.2853L82.3295 36.2976C82.6411 36.1016 83.0311 35.9984 83.4374 36.0045C83.8437 36.0108 84.2432 36.1258 84.5726 36.3313L93.1339 41.7553C93.7824 42.165 94.5711 42.3961 95.3747 42.4118C96.1787 42.4274 96.9513 42.2268 97.5705 41.8418L102.58 38.7434C102.872 38.5632 103.104 38.3295 103.26 38.06C103.415 37.7908 103.49 37.4929 103.478 37.1895C103.467 36.8861 103.369 36.585 103.192 36.3095C103.015 36.0339 102.764 35.7913 102.459 35.6L92.2655 29.2277C91.6174 28.8211 90.8305 28.5924 90.0292 28.5778C89.2279 28.5632 88.4579 28.7634 87.8403 29.147L66.0455 42.6255C65.7516 42.8103 65.3876 42.9126 65.0053 42.9182C64.6229 42.9237 64.2416 42.8324 63.915 42.6568L58.7924 39.8766C57.7861 39.3326 56.6095 39.0474 55.4284 39.0613C54.2474 39.0755 53.1216 39.3879 52.2103 39.9547C51.4337 40.4355 50.8203 41.0642 50.4203 41.7887C50.0205 42.5132 49.8453 43.3129 49.9097 44.1221Z" fill="white"/>
<path d="M162.453 89.875H173.398C175.648 89.875 177.625 90.2578 179.328 91.0234C181.031 91.7891 182.359 92.9062 183.312 94.375C184.281 95.8438 184.766 97.6484 184.766 99.7891C184.766 101.43 184.414 102.914 183.711 104.242C183.008 105.57 182.055 106.672 180.852 107.547C179.648 108.406 178.289 108.969 176.773 109.234L175.953 109.539H163.367L163.32 107.805H174.359C176.25 107.805 177.82 107.422 179.07 106.656C180.336 105.891 181.281 104.898 181.906 103.68C182.547 102.445 182.867 101.148 182.867 99.7891C182.867 98.0859 182.484 96.6328 181.719 95.4297C180.969 94.2109 179.883 93.2734 178.461 92.6172C177.055 91.9453 175.367 91.6094 173.398 91.6094H164.352V124H162.453V89.875ZM184.18 124L175.039 108.859L177.148 108.836L186.195 123.672V124H184.18ZM208.695 119.336V106.234C208.695 104.906 208.414 103.766 207.852 102.812C207.289 101.859 206.469 101.133 205.391 100.633C204.312 100.117 202.992 99.8594 201.43 99.8594C199.977 99.8594 198.672 100.117 197.516 100.633C196.375 101.133 195.477 101.82 194.82 102.695C194.164 103.57 193.836 104.547 193.836 105.625L191.961 105.602C191.961 104.633 192.188 103.703 192.641 102.812C193.109 101.922 193.766 101.133 194.609 100.445C195.469 99.7422 196.477 99.1875 197.633 98.7812C198.805 98.375 200.086 98.1719 201.477 98.1719C203.258 98.1719 204.828 98.4766 206.188 99.0859C207.562 99.6797 208.633 100.578 209.398 101.781C210.164 102.984 210.547 104.484 210.547 106.281V118.797C210.547 119.703 210.609 120.617 210.734 121.539C210.859 122.461 211.031 123.203 211.25 123.766V124H209.211C209.039 123.406 208.906 122.68 208.812 121.82C208.734 120.961 208.695 120.133 208.695 119.336ZM209.305 109.609L209.352 111.227H203.164C201.602 111.227 200.203 111.375 198.969 111.672C197.734 111.969 196.688 112.391 195.828 112.938C194.969 113.484 194.312 114.133 193.859 114.883C193.406 115.633 193.18 116.477 193.18 117.414C193.18 118.383 193.438 119.273 193.953 120.086C194.469 120.898 195.195 121.547 196.133 122.031C197.07 122.5 198.156 122.734 199.391 122.734C201.078 122.734 202.57 122.445 203.867 121.867C205.18 121.273 206.281 120.477 207.172 119.477C208.062 118.461 208.711 117.289 209.117 115.961L209.938 117.32C209.672 118.148 209.258 118.984 208.695 119.828C208.133 120.672 207.406 121.445 206.516 122.148C205.625 122.836 204.578 123.398 203.375 123.836C202.172 124.258 200.805 124.469 199.273 124.469C197.664 124.469 196.258 124.172 195.055 123.578C193.867 122.969 192.945 122.141 192.289 121.094C191.633 120.031 191.305 118.82 191.305 117.461C191.305 116.289 191.57 115.219 192.102 114.25C192.633 113.281 193.398 112.453 194.398 111.766C195.414 111.062 196.641 110.531 198.078 110.172C199.531 109.797 201.164 109.609 202.977 109.609H209.305ZM220.32 104.055V124H218.469V98.6406H220.297L220.32 104.055ZM219.969 109.375L219.055 108.297C219.195 106.953 219.523 105.672 220.039 104.453C220.57 103.234 221.266 102.156 222.125 101.219C223 100.281 224.016 99.5391 225.172 98.9922C226.344 98.4453 227.633 98.1719 229.039 98.1719C230.305 98.1719 231.438 98.3516 232.438 98.7109C233.438 99.0547 234.281 99.6016 234.969 100.352C235.672 101.102 236.203 102.07 236.562 103.258C236.922 104.43 237.102 105.859 237.102 107.547V124H235.25V107.547C235.25 105.547 234.977 104 234.43 102.906C233.883 101.797 233.117 101.016 232.133 100.562C231.164 100.109 230.031 99.8828 228.734 99.8828C227.234 99.8828 225.938 100.219 224.844 100.891C223.766 101.547 222.875 102.383 222.172 103.398C221.469 104.398 220.93 105.438 220.555 106.516C220.195 107.594 220 108.547 219.969 109.375ZM261.617 119.078V88H263.469V124H261.688L261.617 119.078ZM243.664 111.555V111.062C243.664 109.078 243.883 107.297 244.32 105.719C244.758 104.125 245.391 102.773 246.219 101.664C247.047 100.539 248.055 99.6797 249.242 99.0859C250.445 98.4766 251.805 98.1719 253.32 98.1719C254.742 98.1719 256.008 98.3984 257.117 98.8516C258.227 99.2891 259.188 99.9219 260 100.75C260.812 101.562 261.477 102.523 261.992 103.633C262.523 104.727 262.914 105.938 263.164 107.266V116.008C262.977 117.18 262.625 118.281 262.109 119.312C261.609 120.328 260.945 121.227 260.117 122.008C259.305 122.773 258.328 123.375 257.188 123.812C256.047 124.25 254.742 124.469 253.273 124.469C251.773 124.469 250.43 124.156 249.242 123.531C248.055 122.906 247.047 122.023 246.219 120.883C245.391 119.742 244.758 118.383 244.32 116.805C243.883 115.227 243.664 113.477 243.664 111.555ZM245.562 111.062V111.555C245.562 113.164 245.719 114.648 246.031 116.008C246.359 117.367 246.844 118.547 247.484 119.547C248.141 120.547 248.961 121.328 249.945 121.891C250.945 122.453 252.117 122.734 253.461 122.734C255.18 122.734 256.633 122.422 257.82 121.797C259.008 121.172 259.953 120.344 260.656 119.312C261.375 118.281 261.875 117.141 262.156 115.891V107.617C261.984 106.82 261.711 105.977 261.336 105.086C260.977 104.18 260.469 103.336 259.812 102.555C259.172 101.773 258.336 101.141 257.305 100.656C256.273 100.156 255.008 99.9062 253.508 99.9062C252.148 99.9062 250.969 100.188 249.969 100.75C248.984 101.312 248.164 102.094 247.508 103.094C246.852 104.094 246.359 105.273 246.031 106.633C245.719 107.992 245.562 109.469 245.562 111.062ZM269.469 111.766V110.875C269.469 109.016 269.734 107.312 270.266 105.766C270.812 104.219 271.578 102.883 272.562 101.758C273.547 100.617 274.719 99.7344 276.078 99.1094C277.453 98.4844 278.977 98.1719 280.648 98.1719C282.32 98.1719 283.844 98.4844 285.219 99.1094C286.594 99.7344 287.773 100.617 288.758 101.758C289.758 102.883 290.523 104.219 291.055 105.766C291.586 107.312 291.852 109.016 291.852 110.875V111.766C291.852 113.625 291.586 115.328 291.055 116.875C290.523 118.422 289.766 119.766 288.781 120.906C287.797 122.031 286.617 122.906 285.242 123.531C283.883 124.156 282.367 124.469 280.695 124.469C279.008 124.469 277.477 124.156 276.102 123.531C274.742 122.906 273.562 122.031 272.562 120.906C271.578 119.766 270.812 118.422 270.266 116.875C269.734 115.328 269.469 113.625 269.469 111.766ZM271.344 110.875V111.766C271.344 113.234 271.547 114.633 271.953 115.961C272.375 117.273 272.984 118.445 273.781 119.477C274.578 120.492 275.555 121.297 276.711 121.891C277.867 122.469 279.195 122.758 280.695 122.758C282.164 122.758 283.477 122.469 284.633 121.891C285.789 121.297 286.758 120.492 287.539 119.477C288.336 118.445 288.938 117.273 289.344 115.961C289.766 114.633 289.977 113.234 289.977 111.766V110.875C289.977 109.438 289.766 108.062 289.344 106.75C288.938 105.438 288.336 104.266 287.539 103.234C286.742 102.203 285.766 101.391 284.609 100.797C283.453 100.188 282.133 99.8828 280.648 99.8828C279.164 99.8828 277.844 100.188 276.688 100.797C275.547 101.391 274.57 102.203 273.758 103.234C272.961 104.266 272.359 105.438 271.953 106.75C271.547 108.062 271.344 109.438 271.344 110.875ZM299.539 104.008V124H297.664V98.6406H299.492L299.539 104.008ZM299.234 109.375L298.297 108.297C298.422 106.953 298.734 105.672 299.234 104.453C299.75 103.234 300.43 102.156 301.273 101.219C302.133 100.281 303.141 99.5391 304.297 98.9922C305.469 98.4453 306.773 98.1719 308.211 98.1719C309.477 98.1719 310.609 98.3438 311.609 98.6875C312.625 99.0156 313.484 99.5391 314.188 100.258C314.891 100.961 315.43 101.883 315.805 103.023C316.18 104.164 316.367 105.531 316.367 107.125V124H314.492V107.172C314.492 105.266 314.211 103.789 313.648 102.742C313.086 101.695 312.305 100.961 311.305 100.539C310.305 100.102 309.156 99.8828 307.859 99.8828C306.328 99.8828 305.023 100.219 303.945 100.891C302.867 101.547 301.984 102.383 301.297 103.398C300.625 104.398 300.125 105.438 299.797 106.516C299.469 107.594 299.281 108.547 299.234 109.375ZM316.344 107.289L315.078 106.844C315.203 105.703 315.523 104.617 316.039 103.586C316.57 102.539 317.266 101.617 318.125 100.82C318.984 100.008 319.992 99.3672 321.148 98.8984C322.32 98.4141 323.617 98.1719 325.039 98.1719C326.336 98.1719 327.492 98.3516 328.508 98.7109C329.539 99.0547 330.398 99.6094 331.086 100.375C331.789 101.125 332.328 102.094 332.703 103.281C333.078 104.453 333.266 105.875 333.266 107.547V124H331.391V107.523C331.391 105.523 331.109 103.969 330.547 102.859C329.984 101.75 329.203 100.977 328.203 100.539C327.203 100.086 326.047 99.8672 324.734 99.8828C323.344 99.8984 322.133 100.156 321.102 100.656C320.07 101.156 319.211 101.789 318.523 102.555C317.836 103.32 317.312 104.125 316.953 104.969C316.594 105.797 316.391 106.57 316.344 107.289ZM342.898 98.6406V124H341.023V98.6406H342.898ZM340.438 90.9531C340.438 90.5312 340.578 90.1719 340.859 89.875C341.156 89.5625 341.531 89.4062 341.984 89.4062C342.422 89.4062 342.789 89.5625 343.086 89.875C343.383 90.1719 343.531 90.5312 343.531 90.9531C343.531 91.375 343.383 91.7344 343.086 92.0312C342.789 92.3125 342.422 92.4531 341.984 92.4531C341.531 92.4531 341.156 92.3125 340.859 92.0312C340.578 91.7344 340.438 91.375 340.438 90.9531ZM368.961 122.289V124H349.742V122.289H368.961ZM367.719 100.141L350.305 124H349.133V122.547L366.57 98.6406H367.719V100.141ZM366.875 98.6406V100.375H349.766V98.6406H366.875ZM383.117 124.469C381.523 124.469 380.047 124.164 378.688 123.555C377.328 122.93 376.141 122.062 375.125 120.953C374.109 119.828 373.312 118.5 372.734 116.969C372.172 115.438 371.891 113.758 371.891 111.93V110.898C371.891 109.008 372.172 107.289 372.734 105.742C373.312 104.18 374.094 102.836 375.078 101.711C376.062 100.57 377.195 99.6953 378.477 99.0859C379.773 98.4766 381.156 98.1719 382.625 98.1719C384.109 98.1719 385.453 98.4453 386.656 98.9922C387.859 99.5391 388.891 100.305 389.75 101.289C390.609 102.273 391.266 103.445 391.719 104.805C392.172 106.164 392.398 107.664 392.398 109.305V110.875H373.062V109.164H390.547V108.859C390.531 107.266 390.203 105.789 389.562 104.43C388.938 103.07 388.039 101.977 386.867 101.148C385.695 100.305 384.281 99.8828 382.625 99.8828C381.297 99.8828 380.086 100.164 378.992 100.727C377.914 101.289 376.984 102.07 376.203 103.07C375.422 104.055 374.82 105.219 374.398 106.562C373.977 107.891 373.766 109.336 373.766 110.898V111.93C373.766 113.43 374 114.836 374.469 116.148C374.938 117.461 375.594 118.617 376.438 119.617C377.281 120.602 378.273 121.375 379.414 121.938C380.555 122.5 381.805 122.781 383.164 122.781C384.633 122.781 385.977 122.523 387.195 122.008C388.414 121.492 389.523 120.586 390.523 119.289L391.742 120.203C391.18 121.016 390.5 121.742 389.703 122.383C388.906 123.023 387.961 123.531 386.867 123.906C385.789 124.281 384.539 124.469 383.117 124.469ZM400.039 102.953V124H398.188V98.6406H400.016L400.039 102.953ZM409.695 98.4531L409.578 100.141C409.297 100.094 409.016 100.055 408.734 100.023C408.453 99.9922 408.156 99.9766 407.844 99.9766C406.5 99.9766 405.32 100.242 404.305 100.773C403.305 101.305 402.461 102.031 401.773 102.953C401.102 103.875 400.594 104.945 400.25 106.164C399.906 107.383 399.727 108.688 399.711 110.078L398.797 110.266C398.797 108.531 398.977 106.93 399.336 105.461C399.711 103.992 400.273 102.711 401.023 101.617C401.773 100.523 402.719 99.6797 403.859 99.0859C405 98.4766 406.344 98.1719 407.891 98.1719C408.266 98.1719 408.609 98.2031 408.922 98.2656C409.234 98.3125 409.492 98.375 409.695 98.4531ZM429.711 124H427.859V95.2188C427.859 93.5469 428.133 92.1406 428.68 91C429.242 89.8594 430.039 88.9922 431.07 88.3984C432.117 87.8047 433.367 87.5078 434.82 87.5078C435.305 87.5078 435.805 87.5391 436.32 87.6016C436.836 87.6484 437.336 87.75 437.82 87.9062L437.609 89.5703C437.203 89.4609 436.797 89.3828 436.391 89.3359C436 89.2734 435.508 89.2422 434.914 89.2422C433.836 89.2422 432.906 89.4766 432.125 89.9453C431.359 90.4141 430.766 91.0938 430.344 91.9844C429.922 92.8594 429.711 93.9375 429.711 95.2188V124ZM436.156 98.6406V100.328H423.523V98.6406H436.156ZM450.148 124.469C448.555 124.469 447.078 124.164 445.719 123.555C444.359 122.93 443.172 122.062 442.156 120.953C441.141 119.828 440.344 118.5 439.766 116.969C439.203 115.438 438.922 113.758 438.922 111.93V110.898C438.922 109.008 439.203 107.289 439.766 105.742C440.344 104.18 441.125 102.836 442.109 101.711C443.094 100.57 444.227 99.6953 445.508 99.0859C446.805 98.4766 448.188 98.1719 449.656 98.1719C451.141 98.1719 452.484 98.4453 453.688 98.9922C454.891 99.5391 455.922 100.305 456.781 101.289C457.641 102.273 458.297 103.445 458.75 104.805C459.203 106.164 459.43 107.664 459.43 109.305V110.875H440.094V109.164H457.578V108.859C457.562 107.266 457.234 105.789 456.594 104.43C455.969 103.07 455.07 101.977 453.898 101.148C452.727 100.305 451.312 99.8828 449.656 99.8828C448.328 99.8828 447.117 100.164 446.023 100.727C444.945 101.289 444.016 102.07 443.234 103.07C442.453 104.055 441.852 105.219 441.43 106.562C441.008 107.891 440.797 109.336 440.797 110.898V111.93C440.797 113.43 441.031 114.836 441.5 116.148C441.969 117.461 442.625 118.617 443.469 119.617C444.312 120.602 445.305 121.375 446.445 121.938C447.586 122.5 448.836 122.781 450.195 122.781C451.664 122.781 453.008 122.523 454.227 122.008C455.445 121.492 456.555 120.586 457.555 119.289L458.773 120.203C458.211 121.016 457.531 121.742 456.734 122.383C455.938 123.023 454.992 123.531 453.898 123.906C452.82 124.281 451.57 124.469 450.148 124.469ZM480.945 119.336V106.234C480.945 104.906 480.664 103.766 480.102 102.812C479.539 101.859 478.719 101.133 477.641 100.633C476.562 100.117 475.242 99.8594 473.68 99.8594C472.227 99.8594 470.922 100.117 469.766 100.633C468.625 101.133 467.727 101.82 467.07 102.695C466.414 103.57 466.086 104.547 466.086 105.625L464.211 105.602C464.211 104.633 464.438 103.703 464.891 102.812C465.359 101.922 466.016 101.133 466.859 100.445C467.719 99.7422 468.727 99.1875 469.883 98.7812C471.055 98.375 472.336 98.1719 473.727 98.1719C475.508 98.1719 477.078 98.4766 478.438 99.0859C479.812 99.6797 480.883 100.578 481.648 101.781C482.414 102.984 482.797 104.484 482.797 106.281V118.797C482.797 119.703 482.859 120.617 482.984 121.539C483.109 122.461 483.281 123.203 483.5 123.766V124H481.461C481.289 123.406 481.156 122.68 481.062 121.82C480.984 120.961 480.945 120.133 480.945 119.336ZM481.555 109.609L481.602 111.227H475.414C473.852 111.227 472.453 111.375 471.219 111.672C469.984 111.969 468.938 112.391 468.078 112.938C467.219 113.484 466.562 114.133 466.109 114.883C465.656 115.633 465.43 116.477 465.43 117.414C465.43 118.383 465.688 119.273 466.203 120.086C466.719 120.898 467.445 121.547 468.383 122.031C469.32 122.5 470.406 122.734 471.641 122.734C473.328 122.734 474.82 122.445 476.117 121.867C477.43 121.273 478.531 120.477 479.422 119.477C480.312 118.461 480.961 117.289 481.367 115.961L482.188 117.32C481.922 118.148 481.508 118.984 480.945 119.828C480.383 120.672 479.656 121.445 478.766 122.148C477.875 122.836 476.828 123.398 475.625 123.836C474.422 124.258 473.055 124.469 471.523 124.469C469.914 124.469 468.508 124.172 467.305 123.578C466.117 122.969 465.195 122.141 464.539 121.094C463.883 120.031 463.555 118.82 463.555 117.461C463.555 116.289 463.82 115.219 464.352 114.25C464.883 113.281 465.648 112.453 466.648 111.766C467.664 111.062 468.891 110.531 470.328 110.172C471.781 109.797 473.414 109.609 475.227 109.609H481.555ZM499.719 98.6406V100.328H487.578V98.6406H499.719ZM492.266 91.9375H494.141V117.883C494.141 119.242 494.305 120.273 494.633 120.977C494.977 121.664 495.422 122.133 495.969 122.383C496.531 122.617 497.133 122.734 497.773 122.734C498.227 122.734 498.641 122.711 499.016 122.664C499.406 122.617 499.797 122.562 500.188 122.5L500.352 124.141C500.008 124.25 499.562 124.328 499.016 124.375C498.469 124.438 497.984 124.469 497.562 124.469C496.5 124.469 495.57 124.273 494.773 123.883C493.977 123.492 493.359 122.82 492.922 121.867C492.484 120.898 492.266 119.57 492.266 117.883V91.9375ZM505.531 122.617C505.531 122.195 505.68 121.836 505.977 121.539C506.273 121.227 506.648 121.07 507.102 121.07C507.57 121.07 507.953 121.219 508.25 121.516C508.547 121.812 508.695 122.18 508.695 122.617C508.695 123.055 508.547 123.422 508.25 123.719C507.953 124.016 507.57 124.164 507.102 124.164C506.648 124.164 506.273 124.016 505.977 123.719C505.68 123.422 505.531 123.055 505.531 122.617ZM549.008 115.727C549.008 114.711 548.836 113.805 548.492 113.008C548.148 112.195 547.578 111.477 546.781 110.852C546 110.211 544.969 109.617 543.688 109.07C542.406 108.523 540.828 107.992 538.953 107.477C537.234 107.008 535.68 106.5 534.289 105.953C532.914 105.391 531.734 104.75 530.75 104.031C529.781 103.312 529.039 102.461 528.523 101.477C528.008 100.477 527.75 99.2969 527.75 97.9375C527.75 96.625 528.031 95.4453 528.594 94.3984C529.156 93.3516 529.945 92.4609 530.961 91.7266C531.992 90.9766 533.195 90.4062 534.57 90.0156C535.961 89.6094 537.477 89.4062 539.117 89.4062C541.414 89.4062 543.422 89.8438 545.141 90.7188C546.859 91.5781 548.203 92.7734 549.172 94.3047C550.141 95.8203 550.625 97.5625 550.625 99.5312H548.727C548.727 97.9219 548.328 96.4844 547.531 95.2188C546.75 93.9531 545.641 92.9609 544.203 92.2422C542.781 91.5078 541.086 91.1406 539.117 91.1406C537.086 91.1406 535.359 91.4531 533.938 92.0781C532.531 92.7031 531.461 93.5312 530.727 94.5625C530.008 95.5781 529.648 96.6875 529.648 97.8906C529.648 98.75 529.805 99.5547 530.117 100.305C530.445 101.055 530.977 101.742 531.711 102.367C532.461 102.992 533.469 103.586 534.734 104.148C536.016 104.695 537.609 105.227 539.516 105.742C541.266 106.195 542.836 106.711 544.227 107.289C545.633 107.852 546.836 108.516 547.836 109.281C548.836 110.047 549.602 110.953 550.133 112C550.664 113.047 550.93 114.273 550.93 115.68C550.93 117.07 550.633 118.312 550.039 119.406C549.445 120.484 548.617 121.406 547.555 122.172C546.508 122.922 545.273 123.492 543.852 123.883C542.445 124.273 540.93 124.469 539.305 124.469C537.82 124.469 536.328 124.289 534.828 123.93C533.344 123.57 531.984 122.992 530.75 122.195C529.516 121.398 528.523 120.352 527.773 119.055C527.023 117.758 526.648 116.18 526.648 114.32H528.547C528.547 115.914 528.875 117.258 529.531 118.352C530.188 119.43 531.047 120.289 532.109 120.93C533.172 121.57 534.328 122.031 535.578 122.312C536.844 122.594 538.086 122.734 539.305 122.734C541.211 122.734 542.891 122.445 544.344 121.867C545.812 121.273 546.953 120.453 547.766 119.406C548.594 118.344 549.008 117.117 549.008 115.727ZM558.594 103.516V133.75H556.719V98.6406H558.523L558.594 103.516ZM576.547 111.062V111.555C576.547 113.477 576.328 115.227 575.891 116.805C575.469 118.383 574.844 119.742 574.016 120.883C573.203 122.023 572.203 122.906 571.016 123.531C569.828 124.156 568.477 124.469 566.961 124.469C565.508 124.469 564.203 124.258 563.047 123.836C561.891 123.398 560.891 122.789 560.047 122.008C559.203 121.227 558.523 120.336 558.008 119.336C557.492 118.32 557.133 117.234 556.93 116.078V107.266C557.195 105.938 557.594 104.727 558.125 103.633C558.672 102.523 559.352 101.562 560.164 100.75C560.992 99.9219 561.969 99.2891 563.094 98.8516C564.219 98.3984 565.492 98.1719 566.914 98.1719C568.43 98.1719 569.781 98.4766 570.969 99.0859C572.172 99.6797 573.188 100.539 574.016 101.664C574.844 102.773 575.469 104.125 575.891 105.719C576.328 107.297 576.547 109.078 576.547 111.062ZM574.648 111.555V111.062C574.648 109.469 574.484 107.992 574.156 106.633C573.844 105.273 573.359 104.094 572.703 103.094C572.047 102.094 571.219 101.312 570.219 100.75C569.219 100.188 568.039 99.9062 566.68 99.9062C565.195 99.9062 563.938 100.156 562.906 100.656C561.875 101.141 561.023 101.773 560.352 102.555C559.695 103.336 559.188 104.18 558.828 105.086C558.469 105.977 558.203 106.82 558.031 107.617V115.938C558.312 117.188 558.812 118.328 559.531 119.359C560.25 120.391 561.203 121.219 562.391 121.844C563.594 122.453 565.039 122.758 566.727 122.758C568.086 122.758 569.258 122.477 570.242 121.914C571.227 121.352 572.047 120.57 572.703 119.57C573.359 118.57 573.844 117.391 574.156 116.031C574.484 114.656 574.648 113.164 574.648 111.555ZM581.422 111.766V110.875C581.422 109.016 581.688 107.312 582.219 105.766C582.766 104.219 583.531 102.883 584.516 101.758C585.5 100.617 586.672 99.7344 588.031 99.1094C589.406 98.4844 590.93 98.1719 592.602 98.1719C594.273 98.1719 595.797 98.4844 597.172 99.1094C598.547 99.7344 599.727 100.617 600.711 101.758C601.711 102.883 602.477 104.219 603.008 105.766C603.539 107.312 603.805 109.016 603.805 110.875V111.766C603.805 113.625 603.539 115.328 603.008 116.875C602.477 118.422 601.719 119.766 600.734 120.906C599.75 122.031 598.57 122.906 597.195 123.531C595.836 124.156 594.32 124.469 592.648 124.469C590.961 124.469 589.43 124.156 588.055 123.531C586.695 122.906 585.516 122.031 584.516 120.906C583.531 119.766 582.766 118.422 582.219 116.875C581.688 115.328 581.422 113.625 581.422 111.766ZM583.297 110.875V111.766C583.297 113.234 583.5 114.633 583.906 115.961C584.328 117.273 584.938 118.445 585.734 119.477C586.531 120.492 587.508 121.297 588.664 121.891C589.82 122.469 591.148 122.758 592.648 122.758C594.117 122.758 595.43 122.469 596.586 121.891C597.742 121.297 598.711 120.492 599.492 119.477C600.289 118.445 600.891 117.273 601.297 115.961C601.719 114.633 601.93 113.234 601.93 111.766V110.875C601.93 109.438 601.719 108.062 601.297 106.75C600.891 105.438 600.289 104.266 599.492 103.234C598.695 102.203 597.719 101.391 596.562 100.797C595.406 100.188 594.086 99.8828 592.602 99.8828C591.117 99.8828 589.797 100.188 588.641 100.797C587.5 101.391 586.523 102.203 585.711 103.234C584.914 104.266 584.312 105.438 583.906 106.75C583.5 108.062 583.297 109.438 583.297 110.875ZM618.828 98.6406V100.328H606.688V98.6406H618.828ZM611.375 91.9375H613.25V117.883C613.25 119.242 613.414 120.273 613.742 120.977C614.086 121.664 614.531 122.133 615.078 122.383C615.641 122.617 616.242 122.734 616.883 122.734C617.336 122.734 617.75 122.711 618.125 122.664C618.516 122.617 618.906 122.562 619.297 122.5L619.461 124.141C619.117 124.25 618.672 124.328 618.125 124.375C617.578 124.438 617.094 124.469 616.672 124.469C615.609 124.469 614.68 124.273 613.883 123.883C613.086 123.492 612.469 122.82 612.031 121.867C611.594 120.898 611.375 119.57 611.375 117.883V91.9375ZM627.289 98.6406V124H625.414V98.6406H627.289ZM624.828 90.9531C624.828 90.5312 624.969 90.1719 625.25 89.875C625.547 89.5625 625.922 89.4062 626.375 89.4062C626.812 89.4062 627.18 89.5625 627.477 89.875C627.773 90.1719 627.922 90.5312 627.922 90.9531C627.922 91.375 627.773 91.7344 627.477 92.0312C627.18 92.3125 626.812 92.4531 626.375 92.4531C625.922 92.4531 625.547 92.3125 625.25 92.0312C624.969 91.7344 624.828 91.375 624.828 90.9531ZM639.195 124H637.344V95.2188C637.344 93.5469 637.617 92.1406 638.164 91C638.727 89.8594 639.523 88.9922 640.555 88.3984C641.602 87.8047 642.852 87.5078 644.305 87.5078C644.789 87.5078 645.289 87.5391 645.805 87.6016C646.32 87.6484 646.82 87.75 647.305 87.9062L647.094 89.5703C646.688 89.4609 646.281 89.3828 645.875 89.3359C645.484 89.2734 644.992 89.2422 644.398 89.2422C643.32 89.2422 642.391 89.4766 641.609 89.9453C640.844 90.4141 640.25 91.0938 639.828 91.9844C639.406 92.8594 639.195 93.9375 639.195 95.2188V124ZM645.641 98.6406V100.328H633.008V98.6406H645.641ZM658.555 121.516L666.992 98.6406H669.031L657.969 128.148C657.766 128.711 657.508 129.336 657.195 130.023C656.883 130.727 656.477 131.398 655.977 132.039C655.477 132.68 654.828 133.203 654.031 133.609C653.25 134.031 652.281 134.242 651.125 134.242C650.859 134.242 650.508 134.211 650.07 134.148C649.648 134.102 649.336 134.039 649.133 133.961L649.109 132.32C649.328 132.367 649.617 132.406 649.977 132.438C650.336 132.484 650.586 132.508 650.727 132.508C651.758 132.508 652.617 132.305 653.305 131.898C654.008 131.508 654.594 130.945 655.062 130.211C655.531 129.492 655.945 128.641 656.305 127.656L658.555 121.516ZM649.859 98.6406L658.859 121.68L659.398 123.602L657.969 124.492L647.82 98.6406H649.859Z" fill="white"/>
<path d="M170.363 28.3438V71H161.838V28.3438H170.363ZM215.188 63.9102V71H197.463V63.9102H215.188ZM200.1 28.3438V71H191.516V28.3438H200.1ZM228.43 39.3008V71H220.197V39.3008H228.43ZM219.816 31.0977C219.816 29.8281 220.217 28.7832 221.018 27.9629C221.838 27.123 222.932 26.7031 224.299 26.7031C225.686 26.7031 226.779 27.123 227.58 27.9629C228.381 28.7832 228.781 29.8281 228.781 31.0977C228.781 32.3477 228.371 33.3926 227.551 34.2324C226.75 35.0527 225.676 35.4629 224.328 35.4629C222.941 35.4629 221.838 35.0527 221.018 34.2324C220.217 33.3926 219.816 32.3477 219.816 31.0977ZM243.137 25.9707V71H234.934V25.9707H243.137ZM259.807 39.3008L248.645 55.0625L241.936 62.5918L239.035 56.3516L244.191 48.8223L250.021 39.3008H259.807ZM251.252 71L244.338 56.4395L249.992 51.2246L260.656 71H251.252ZM275.832 71.5859C273.664 71.5859 271.74 71.2539 270.061 70.5898C268.4 69.9258 266.994 68.9688 265.842 67.7188C264.689 66.4492 263.811 64.916 263.205 63.1191C262.6 61.3223 262.297 59.2715 262.297 56.9668V54.3594C262.297 51.7812 262.59 49.5254 263.176 47.5918C263.762 45.6387 264.592 43.998 265.666 42.6699C266.74 41.3418 268.059 40.3555 269.621 39.7109C271.203 39.0469 272.99 38.7148 274.982 38.7148C276.975 38.7148 278.723 39.0469 280.227 39.7109C281.75 40.3555 283.01 41.332 284.006 42.6406C285.002 43.9297 285.754 45.5312 286.262 47.4453C286.77 49.3594 287.023 51.5859 287.023 54.125V57.875H265.783V52.1035H278.967V51.3711C278.967 50.082 278.83 49.0078 278.557 48.1484C278.283 47.2695 277.854 46.6152 277.268 46.1855C276.682 45.7559 275.9 45.541 274.924 45.541C274.104 45.541 273.41 45.707 272.844 46.0391C272.277 46.3711 271.828 46.8887 271.496 47.5918C271.164 48.2949 270.92 49.2129 270.764 50.3457C270.607 51.459 270.529 52.7969 270.529 54.3594V56.9668C270.529 58.4316 270.656 59.6621 270.91 60.6582C271.164 61.6348 271.535 62.4355 272.023 63.0605C272.531 63.666 273.146 64.1055 273.869 64.3789C274.592 64.6328 275.432 64.7598 276.389 64.7598C277.834 64.7598 279.133 64.5059 280.285 63.998C281.457 63.4707 282.453 62.7578 283.273 61.8594L286.555 66.8398C285.988 67.582 285.207 68.3242 284.211 69.0664C283.215 69.8086 282.023 70.4141 280.637 70.8828C279.25 71.3516 277.648 71.5859 275.832 71.5859ZM319.426 39.3008V45.4824H303.254V39.3008H319.426ZM306.975 31.4785H315.148V61.332C315.148 62.2109 315.236 62.8848 315.412 63.3535C315.588 63.8223 315.852 64.1543 316.203 64.3496C316.574 64.5254 317.062 64.6133 317.668 64.6133C318.078 64.6133 318.459 64.5938 318.811 64.5547C319.162 64.4961 319.426 64.4375 319.602 64.3789V70.7949C318.957 71.0488 318.273 71.2441 317.551 71.3809C316.848 71.5176 316.008 71.5859 315.031 71.5859C313.391 71.5859 311.965 71.2734 310.754 70.6484C309.562 70.0234 308.635 69.0273 307.971 67.6602C307.307 66.2734 306.975 64.457 306.975 62.2109V31.4785ZM322.18 56.2344V54.0957C322.18 51.6152 322.473 49.418 323.059 47.5039C323.664 45.5898 324.523 43.9883 325.637 42.6992C326.75 41.3906 328.088 40.4043 329.65 39.7402C331.232 39.0566 333 38.7148 334.953 38.7148C336.926 38.7148 338.693 39.0566 340.256 39.7402C341.838 40.4043 343.186 41.3906 344.299 42.6992C345.432 43.9883 346.301 45.5898 346.906 47.5039C347.512 49.418 347.814 51.6152 347.814 54.0957V56.2344C347.814 58.6953 347.512 60.8828 346.906 62.7969C346.301 64.7109 345.432 66.3223 344.299 67.6309C343.186 68.9395 341.848 69.9258 340.285 70.5898C338.723 71.2539 336.965 71.5859 335.012 71.5859C333.059 71.5859 331.291 71.2539 329.709 70.5898C328.146 69.9258 326.799 68.9395 325.666 67.6309C324.533 66.3223 323.664 64.7109 323.059 62.7969C322.473 60.8828 322.18 58.6953 322.18 56.2344ZM330.383 54.0957V56.2344C330.383 57.6992 330.48 58.9688 330.676 60.043C330.891 61.1172 331.193 62.0059 331.584 62.709C331.994 63.4121 332.482 63.9297 333.049 64.2617C333.615 64.5938 334.27 64.7598 335.012 64.7598C335.754 64.7598 336.418 64.5938 337.004 64.2617C337.59 63.9297 338.068 63.4121 338.439 62.709C338.83 62.0059 339.113 61.1172 339.289 60.043C339.484 58.9688 339.582 57.6992 339.582 56.2344V54.0957C339.582 52.6699 339.475 51.4199 339.26 50.3457C339.045 49.252 338.742 48.3633 338.352 47.6797C337.961 46.9766 337.473 46.4492 336.887 46.0977C336.32 45.7266 335.676 45.541 334.953 45.541C334.23 45.541 333.586 45.7266 333.02 46.0977C332.473 46.4492 331.994 46.9766 331.584 47.6797C331.193 48.3633 330.891 49.252 330.676 50.3457C330.48 51.4199 330.383 52.6699 330.383 54.0957ZM390.91 63.9102V71H373.186V63.9102H390.91ZM375.822 28.3438V71H367.238V28.3438H375.822ZM404.152 39.3008V71H395.92V39.3008H404.152ZM395.539 31.0977C395.539 29.8281 395.939 28.7832 396.74 27.9629C397.561 27.123 398.654 26.7031 400.021 26.7031C401.408 26.7031 402.502 27.123 403.303 27.9629C404.104 28.7832 404.504 29.8281 404.504 31.0977C404.504 32.3477 404.094 33.3926 403.273 34.2324C402.473 35.0527 401.398 35.4629 400.051 35.4629C398.664 35.4629 397.561 35.0527 396.74 34.2324C395.939 33.3926 395.539 32.3477 395.539 31.0977ZM424.719 62.4453C424.719 61.8984 424.533 61.4102 424.162 60.9805C423.791 60.5508 423.205 60.1113 422.404 59.6621C421.604 59.1934 420.539 58.6758 419.211 58.1094C417.766 57.5234 416.486 56.918 415.373 56.293C414.26 55.668 413.312 54.9746 412.531 54.2129C411.77 53.4512 411.193 52.582 410.803 51.6055C410.412 50.6289 410.217 49.5156 410.217 48.2656C410.217 46.918 410.461 45.6777 410.949 44.5449C411.457 43.3926 412.18 42.3867 413.117 41.5273C414.055 40.6484 415.197 39.9648 416.545 39.4766C417.912 38.9688 419.445 38.7148 421.145 38.7148C423.527 38.7148 425.568 39.1348 427.268 39.9746C428.986 40.7949 430.305 41.9473 431.223 43.4316C432.141 44.916 432.6 46.6445 432.6 48.6172H424.396C424.396 47.9141 424.289 47.2891 424.074 46.7422C423.859 46.1758 423.508 45.7363 423.02 45.4238C422.551 45.1113 421.916 44.9551 421.115 44.9551C420.529 44.9551 420.002 45.082 419.533 45.3359C419.084 45.5898 418.723 45.9316 418.449 46.3613C418.195 46.7715 418.068 47.2598 418.068 47.8262C418.068 48.2559 418.156 48.6367 418.332 48.9688C418.527 49.3008 418.83 49.623 419.24 49.9355C419.65 50.248 420.197 50.5801 420.881 50.9316C421.584 51.2637 422.443 51.6348 423.459 52.0449C425.568 52.8262 427.297 53.666 428.645 54.5645C430.012 55.4629 431.027 56.5176 431.691 57.7285C432.355 58.9199 432.688 60.3945 432.688 62.1523C432.688 63.5586 432.414 64.8379 431.867 65.9902C431.34 67.1426 430.568 68.1387 429.553 68.9785C428.537 69.8184 427.316 70.4629 425.891 70.9121C424.484 71.3613 422.912 71.5859 421.174 71.5859C418.615 71.5859 416.457 71.0781 414.699 70.0625C412.941 69.0469 411.613 67.748 410.715 66.166C409.816 64.5645 409.367 62.9043 409.367 61.1855H417.16C417.199 62.2402 417.395 63.0703 417.746 63.6758C418.117 64.2617 418.615 64.6719 419.24 64.9062C419.865 65.1406 420.559 65.2578 421.32 65.2578C422.082 65.2578 422.707 65.1602 423.195 64.9648C423.703 64.75 424.084 64.4277 424.338 63.998C424.592 63.5488 424.719 63.0312 424.719 62.4453ZM451.73 39.3008V45.4824H435.559V39.3008H451.73ZM439.279 31.4785H447.453V61.332C447.453 62.2109 447.541 62.8848 447.717 63.3535C447.893 63.8223 448.156 64.1543 448.508 64.3496C448.879 64.5254 449.367 64.6133 449.973 64.6133C450.383 64.6133 450.764 64.5938 451.115 64.5547C451.467 64.4961 451.73 64.4375 451.906 64.3789V70.7949C451.262 71.0488 450.578 71.2441 449.855 71.3809C449.152 71.5176 448.312 71.5859 447.336 71.5859C445.695 71.5859 444.27 71.2734 443.059 70.6484C441.867 70.0234 440.939 69.0273 440.275 67.6602C439.611 66.2734 439.279 64.457 439.279 62.2109V31.4785ZM469.074 71.5859C466.906 71.5859 464.982 71.2539 463.303 70.5898C461.643 69.9258 460.236 68.9688 459.084 67.7188C457.932 66.4492 457.053 64.916 456.447 63.1191C455.842 61.3223 455.539 59.2715 455.539 56.9668V54.3594C455.539 51.7812 455.832 49.5254 456.418 47.5918C457.004 45.6387 457.834 43.998 458.908 42.6699C459.982 41.3418 461.301 40.3555 462.863 39.7109C464.445 39.0469 466.232 38.7148 468.225 38.7148C470.217 38.7148 471.965 39.0469 473.469 39.7109C474.992 40.3555 476.252 41.332 477.248 42.6406C478.244 43.9297 478.996 45.5312 479.504 47.4453C480.012 49.3594 480.266 51.5859 480.266 54.125V57.875H459.025V52.1035H472.209V51.3711C472.209 50.082 472.072 49.0078 471.799 48.1484C471.525 47.2695 471.096 46.6152 470.51 46.1855C469.924 45.7559 469.143 45.541 468.166 45.541C467.346 45.541 466.652 45.707 466.086 46.0391C465.52 46.3711 465.07 46.8887 464.738 47.5918C464.406 48.2949 464.162 49.2129 464.006 50.3457C463.85 51.459 463.771 52.7969 463.771 54.3594V56.9668C463.771 58.4316 463.898 59.6621 464.152 60.6582C464.406 61.6348 464.777 62.4355 465.266 63.0605C465.773 63.666 466.389 64.1055 467.111 64.3789C467.834 64.6328 468.674 64.7598 469.631 64.7598C471.076 64.7598 472.375 64.5059 473.527 63.998C474.699 63.4707 475.695 62.7578 476.516 61.8594L479.797 66.8398C479.23 67.582 478.449 68.3242 477.453 69.0664C476.457 69.8086 475.266 70.4141 473.879 70.8828C472.492 71.3516 470.891 71.5859 469.074 71.5859ZM493.068 46.0684V71H484.836V39.3008H492.541L493.068 46.0684ZM491.838 54.0664L489.641 54.125C489.602 51.7422 489.826 49.6035 490.314 47.709C490.822 45.8145 491.535 44.2031 492.453 42.875C493.391 41.5273 494.504 40.502 495.793 39.7988C497.102 39.0762 498.557 38.7148 500.158 38.7148C501.389 38.7148 502.512 38.9297 503.527 39.3594C504.562 39.7891 505.451 40.4727 506.193 41.4102C506.936 42.3477 507.512 43.5977 507.922 45.1602C508.332 46.7031 508.537 48.5977 508.537 50.8438V71H500.305V50.7852C500.305 49.418 500.168 48.3633 499.895 47.6211C499.621 46.8594 499.211 46.332 498.664 46.0391C498.117 45.7266 497.434 45.5703 496.613 45.5703C495.832 45.5703 495.139 45.7949 494.533 46.2441C493.928 46.6738 493.42 47.2695 493.01 48.0312C492.619 48.793 492.316 49.6914 492.102 50.7266C491.906 51.7617 491.818 52.875 491.838 54.0664ZM542.199 39.3008V45.4824H526.027V39.3008H542.199ZM529.748 31.4785H537.922V61.332C537.922 62.2109 538.01 62.8848 538.186 63.3535C538.361 63.8223 538.625 64.1543 538.977 64.3496C539.348 64.5254 539.836 64.6133 540.441 64.6133C540.852 64.6133 541.232 64.5938 541.584 64.5547C541.936 64.4961 542.199 64.4375 542.375 64.3789V70.7949C541.73 71.0488 541.047 71.2441 540.324 71.3809C539.621 71.5176 538.781 71.5859 537.805 71.5859C536.164 71.5859 534.738 71.2734 533.527 70.6484C532.336 70.0234 531.408 69.0273 530.744 67.6602C530.08 66.2734 529.748 64.457 529.748 62.2109V31.4785ZM544.953 56.2344V54.0957C544.953 51.6152 545.246 49.418 545.832 47.5039C546.438 45.5898 547.297 43.9883 548.41 42.6992C549.523 41.3906 550.861 40.4043 552.424 39.7402C554.006 39.0566 555.773 38.7148 557.727 38.7148C559.699 38.7148 561.467 39.0566 563.029 39.7402C564.611 40.4043 565.959 41.3906 567.072 42.6992C568.205 43.9883 569.074 45.5898 569.68 47.5039C570.285 49.418 570.588 51.6152 570.588 54.0957V56.2344C570.588 58.6953 570.285 60.8828 569.68 62.7969C569.074 64.7109 568.205 66.3223 567.072 67.6309C565.959 68.9395 564.621 69.9258 563.059 70.5898C561.496 71.2539 559.738 71.5859 557.785 71.5859C555.832 71.5859 554.064 71.2539 552.482 70.5898C550.92 69.9258 549.572 68.9395 548.439 67.6309C547.307 66.3223 546.438 64.7109 545.832 62.7969C545.246 60.8828 544.953 58.6953 544.953 56.2344ZM553.156 54.0957V56.2344C553.156 57.6992 553.254 58.9688 553.449 60.043C553.664 61.1172 553.967 62.0059 554.357 62.709C554.768 63.4121 555.256 63.9297 555.822 64.2617C556.389 64.5938 557.043 64.7598 557.785 64.7598C558.527 64.7598 559.191 64.5938 559.777 64.2617C560.363 63.9297 560.842 63.4121 561.213 62.709C561.604 62.0059 561.887 61.1172 562.062 60.043C562.258 58.9688 562.355 57.6992 562.355 56.2344V54.0957C562.355 52.6699 562.248 51.4199 562.033 50.3457C561.818 49.252 561.516 48.3633 561.125 47.6797C560.734 46.9766 560.246 46.4492 559.66 46.0977C559.094 45.7266 558.449 45.541 557.727 45.541C557.004 45.541 556.359 45.7266 555.793 46.0977C555.246 46.4492 554.768 46.9766 554.357 47.6797C553.967 48.3633 553.664 49.252 553.449 50.3457C553.254 51.4199 553.156 52.6699 553.156 54.0957ZM605.451 35.9609L596.281 71H587.229L600.559 28.3438H606.213L605.451 35.9609ZM612.688 71L603.459 35.9609L602.609 28.3438H608.352L621.799 71H612.688ZM613.01 55.0918V62.2109H593.762V55.0918H613.01ZM634.074 26V71H625.842V26H634.074ZM649.191 26V71H640.959V26H649.191ZM678.518 28.3438V71H669.934V28.3438H678.518ZM699.699 28.3438L685.871 49.5254L677.404 60.0723L675.764 51.4883L681.242 42.3477L689.27 28.3438H699.699ZM689.797 71L680.48 51.4004L686.779 45.834L699.904 71H689.797ZM711.359 39.3008V71H703.127V39.3008H711.359ZM702.746 31.0977C702.746 29.8281 703.146 28.7832 703.947 27.9629C704.768 27.123 705.861 26.7031 707.229 26.7031C708.615 26.7031 709.709 27.123 710.51 27.9629C711.311 28.7832 711.711 29.8281 711.711 31.0977C711.711 32.3477 711.301 33.3926 710.48 34.2324C709.68 35.0527 708.605 35.4629 707.258 35.4629C705.871 35.4629 704.768 35.0527 703.947 34.2324C703.146 33.3926 702.746 32.3477 702.746 31.0977ZM725.92 46.0684V71H717.688V39.3008H725.393L725.92 46.0684ZM724.689 54.0664L722.492 54.125C722.453 51.7422 722.678 49.6035 723.166 47.709C723.674 45.8145 724.387 44.2031 725.305 42.875C726.242 41.5273 727.355 40.502 728.645 39.7988C729.953 39.0762 731.408 38.7148 733.01 38.7148C734.24 38.7148 735.363 38.9297 736.379 39.3594C737.414 39.7891 738.303 40.4727 739.045 41.4102C739.787 42.3477 740.363 43.5977 740.773 45.1602C741.184 46.7031 741.389 48.5977 741.389 50.8438V71H733.156V50.7852C733.156 49.418 733.02 48.3633 732.746 47.6211C732.473 46.8594 732.062 46.332 731.516 46.0391C730.969 45.7266 730.285 45.5703 729.465 45.5703C728.684 45.5703 727.99 45.7949 727.385 46.2441C726.779 46.6738 726.271 47.2695 725.861 48.0312C725.471 48.793 725.168 49.6914 724.953 50.7266C724.758 51.7617 724.67 52.875 724.689 54.0664ZM762.746 63.998V26H770.979V71L763.537 71.0293L762.746 63.998ZM746.311 56.2637V54.1543C746.311 51.5762 746.525 49.3203 746.955 47.3867C747.404 45.4531 748.068 43.8418 748.947 42.5527C749.826 41.2637 750.9 40.3066 752.17 39.6816C753.459 39.0371 754.934 38.7148 756.594 38.7148C758.098 38.7148 759.416 39.0957 760.549 39.8574C761.701 40.5996 762.678 41.6445 763.479 42.9922C764.279 44.3398 764.924 45.9316 765.412 47.7676C765.9 49.6035 766.242 51.6152 766.438 53.8027V56.8496C766.203 58.9199 765.842 60.8535 765.354 62.6504C764.885 64.4473 764.24 66.0098 763.42 67.3379C762.619 68.666 761.652 69.7109 760.52 70.4727C759.387 71.2148 758.068 71.5859 756.564 71.5859C754.904 71.5859 753.43 71.2539 752.141 70.5898C750.871 69.9258 749.797 68.9492 748.918 67.6602C748.059 66.3516 747.404 64.75 746.955 62.8555C746.525 60.9414 746.311 58.7441 746.311 56.2637ZM754.514 54.1543V56.2637C754.514 57.748 754.582 59.0273 754.719 60.1016C754.875 61.1562 755.119 62.0254 755.451 62.709C755.803 63.373 756.262 63.8711 756.828 64.2031C757.395 64.5156 758.098 64.6719 758.938 64.6719C760.031 64.6719 760.92 64.3984 761.604 63.8516C762.287 63.2852 762.795 62.5137 763.127 61.5371C763.479 60.541 763.674 59.3984 763.713 58.1094V52.5723C763.674 51.498 763.547 50.5312 763.332 49.6719C763.117 48.8125 762.814 48.0801 762.424 47.4746C762.033 46.8691 761.545 46.4004 760.959 46.0684C760.393 45.7363 759.729 45.5703 758.967 45.5703C758.146 45.5703 757.443 45.7363 756.857 46.0684C756.291 46.4004 755.842 46.918 755.51 47.6211C755.178 48.3047 754.924 49.1934 754.748 50.2871C754.592 51.3613 754.514 52.6504 754.514 54.1543ZM791.223 62.4453C791.223 61.8984 791.037 61.4102 790.666 60.9805C790.295 60.5508 789.709 60.1113 788.908 59.6621C788.107 59.1934 787.043 58.6758 785.715 58.1094C784.27 57.5234 782.99 56.918 781.877 56.293C780.764 55.668 779.816 54.9746 779.035 54.2129C778.273 53.4512 777.697 52.582 777.307 51.6055C776.916 50.6289 776.721 49.5156 776.721 48.2656C776.721 46.918 776.965 45.6777 777.453 44.5449C777.961 43.3926 778.684 42.3867 779.621 41.5273C780.559 40.6484 781.701 39.9648 783.049 39.4766C784.416 38.9688 785.949 38.7148 787.648 38.7148C790.031 38.7148 792.072 39.1348 793.771 39.9746C795.49 40.7949 796.809 41.9473 797.727 43.4316C798.645 44.916 799.104 46.6445 799.104 48.6172H790.9C790.9 47.9141 790.793 47.2891 790.578 46.7422C790.363 46.1758 790.012 45.7363 789.523 45.4238C789.055 45.1113 788.42 44.9551 787.619 44.9551C787.033 44.9551 786.506 45.082 786.037 45.3359C785.588 45.5898 785.227 45.9316 784.953 46.3613C784.699 46.7715 784.572 47.2598 784.572 47.8262C784.572 48.2559 784.66 48.6367 784.836 48.9688C785.031 49.3008 785.334 49.623 785.744 49.9355C786.154 50.248 786.701 50.5801 787.385 50.9316C788.088 51.2637 788.947 51.6348 789.963 52.0449C792.072 52.8262 793.801 53.666 795.148 54.5645C796.516 55.4629 797.531 56.5176 798.195 57.7285C798.859 58.9199 799.191 60.3945 799.191 62.1523C799.191 63.5586 798.918 64.8379 798.371 65.9902C797.844 67.1426 797.072 68.1387 796.057 68.9785C795.041 69.8184 793.82 70.4629 792.395 70.9121C790.988 71.3613 789.416 71.5859 787.678 71.5859C785.119 71.5859 782.961 71.0781 781.203 70.0625C779.445 69.0469 778.117 67.748 777.219 66.166C776.32 64.5645 775.871 62.9043 775.871 61.1855H783.664C783.703 62.2402 783.898 63.0703 784.25 63.6758C784.621 64.2617 785.119 64.6719 785.744 64.9062C786.369 65.1406 787.062 65.2578 787.824 65.2578C788.586 65.2578 789.211 65.1602 789.699 64.9648C790.207 64.75 790.588 64.4277 790.842 63.998C791.096 63.5488 791.223 63.0312 791.223 62.4453ZM817.297 56.2344V54.0957C817.297 51.6152 817.59 49.418 818.176 47.5039C818.781 45.5898 819.641 43.9883 820.754 42.6992C821.867 41.3906 823.205 40.4043 824.768 39.7402C826.35 39.0566 828.117 38.7148 830.07 38.7148C832.043 38.7148 833.811 39.0566 835.373 39.7402C836.955 40.4043 838.303 41.3906 839.416 42.6992C840.549 43.9883 841.418 45.5898 842.023 47.5039C842.629 49.418 842.932 51.6152 842.932 54.0957V56.2344C842.932 58.6953 842.629 60.8828 842.023 62.7969C841.418 64.7109 840.549 66.3223 839.416 67.6309C838.303 68.9395 836.965 69.9258 835.402 70.5898C833.84 71.2539 832.082 71.5859 830.129 71.5859C828.176 71.5859 826.408 71.2539 824.826 70.5898C823.264 69.9258 821.916 68.9395 820.783 67.6309C819.65 66.3223 818.781 64.7109 818.176 62.7969C817.59 60.8828 817.297 58.6953 817.297 56.2344ZM825.5 54.0957V56.2344C825.5 57.6992 825.598 58.9688 825.793 60.043C826.008 61.1172 826.311 62.0059 826.701 62.709C827.111 63.4121 827.6 63.9297 828.166 64.2617C828.732 64.5938 829.387 64.7598 830.129 64.7598C830.871 64.7598 831.535 64.5938 832.121 64.2617C832.707 63.9297 833.186 63.4121 833.557 62.709C833.947 62.0059 834.23 61.1172 834.406 60.043C834.602 58.9688 834.699 57.6992 834.699 56.2344V54.0957C834.699 52.6699 834.592 51.4199 834.377 50.3457C834.162 49.252 833.859 48.3633 833.469 47.6797C833.078 46.9766 832.59 46.4492 832.004 46.0977C831.438 45.7266 830.793 45.541 830.07 45.541C829.348 45.541 828.703 45.7266 828.137 46.0977C827.59 46.4492 827.111 46.9766 826.701 47.6797C826.311 48.3633 826.008 49.252 825.793 50.3457C825.598 51.4199 825.5 52.6699 825.5 54.0957ZM858.283 71H850.051V36.5469C850.051 34.1055 850.471 32.0645 851.311 30.4238C852.15 28.7832 853.332 27.5332 854.855 26.6738C856.398 25.8145 858.225 25.3848 860.334 25.3848C861.018 25.3848 861.662 25.4434 862.268 25.5605C862.893 25.6582 863.498 25.7949 864.084 25.9707L863.996 32.5039C863.742 32.4258 863.439 32.3672 863.088 32.3281C862.736 32.2891 862.365 32.2695 861.975 32.2695C861.193 32.2695 860.52 32.4355 859.953 32.7676C859.406 33.0996 858.986 33.5781 858.693 34.2031C858.42 34.8281 858.283 35.6094 858.283 36.5469V71ZM863.234 39.3008V45.4824H846.184V39.3008H863.234ZM885.09 28.3438H892.619L901.32 57.5234L909.992 28.3438H916.643L904.514 71H898.098L885.09 28.3438ZM882.043 28.3438H889.221L890.334 56.4688V71H882.043V28.3438ZM913.361 28.3438H920.568V71H912.307V56.4688L913.361 28.3438ZM942.482 63.3828V39.3008H950.715V71H942.98L942.482 63.3828ZM943.42 56.8496L945.705 56.791C945.705 58.9199 945.5 60.8926 945.09 62.709C944.68 64.5059 944.064 66.0684 943.244 67.3965C942.424 68.7246 941.398 69.7598 940.168 70.502C938.938 71.2246 937.482 71.5859 935.803 71.5859C934.514 71.5859 933.322 71.3711 932.229 70.9414C931.154 70.4922 930.227 69.7988 929.445 68.8613C928.664 67.9043 928.049 66.6836 927.6 65.1992C927.17 63.6953 926.955 61.8887 926.955 59.7793V39.3008H935.188V59.8672C935.188 60.7266 935.266 61.4688 935.422 62.0938C935.578 62.6992 935.793 63.1973 936.066 63.5879C936.34 63.9785 936.662 64.2617 937.033 64.4375C937.404 64.5938 937.824 64.6719 938.293 64.6719C939.582 64.6719 940.598 64.3398 941.34 63.6758C942.102 62.9922 942.639 62.0645 942.951 60.8926C943.264 59.7012 943.42 58.3535 943.42 56.8496ZM970.754 62.4453C970.754 61.8984 970.568 61.4102 970.197 60.9805C969.826 60.5508 969.24 60.1113 968.439 59.6621C967.639 59.1934 966.574 58.6758 965.246 58.1094C963.801 57.5234 962.521 56.918 961.408 56.293C960.295 55.668 959.348 54.9746 958.566 54.2129C957.805 53.4512 957.229 52.582 956.838 51.6055C956.447 50.6289 956.252 49.5156 956.252 48.2656C956.252 46.918 956.496 45.6777 956.984 44.5449C957.492 43.3926 958.215 42.3867 959.152 41.5273C960.09 40.6484 961.232 39.9648 962.58 39.4766C963.947 38.9688 965.48 38.7148 967.18 38.7148C969.562 38.7148 971.604 39.1348 973.303 39.9746C975.021 40.7949 976.34 41.9473 977.258 43.4316C978.176 44.916 978.635 46.6445 978.635 48.6172H970.432C970.432 47.9141 970.324 47.2891 970.109 46.7422C969.895 46.1758 969.543 45.7363 969.055 45.4238C968.586 45.1113 967.951 44.9551 967.15 44.9551C966.564 44.9551 966.037 45.082 965.568 45.3359C965.119 45.5898 964.758 45.9316 964.484 46.3613C964.23 46.7715 964.104 47.2598 964.104 47.8262C964.104 48.2559 964.191 48.6367 964.367 48.9688C964.562 49.3008 964.865 49.623 965.275 49.9355C965.686 50.248 966.232 50.5801 966.916 50.9316C967.619 51.2637 968.479 51.6348 969.494 52.0449C971.604 52.8262 973.332 53.666 974.68 54.5645C976.047 55.4629 977.062 56.5176 977.727 57.7285C978.391 58.9199 978.723 60.3945 978.723 62.1523C978.723 63.5586 978.449 64.8379 977.902 65.9902C977.375 67.1426 976.604 68.1387 975.588 68.9785C974.572 69.8184 973.352 70.4629 971.926 70.9121C970.52 71.3613 968.947 71.5859 967.209 71.5859C964.65 71.5859 962.492 71.0781 960.734 70.0625C958.977 69.0469 957.648 67.748 956.75 66.166C955.852 64.5645 955.402 62.9043 955.402 61.1855H963.195C963.234 62.2402 963.43 63.0703 963.781 63.6758C964.152 64.2617 964.65 64.6719 965.275 64.9062C965.9 65.1406 966.594 65.2578 967.355 65.2578C968.117 65.2578 968.742 65.1602 969.23 64.9648C969.738 64.75 970.119 64.4277 970.373 63.998C970.627 63.5488 970.754 63.0312 970.754 62.4453ZM992.551 39.3008V71H984.318V39.3008H992.551ZM983.938 31.0977C983.938 29.8281 984.338 28.7832 985.139 27.9629C985.959 27.123 987.053 26.7031 988.42 26.7031C989.807 26.7031 990.9 27.123 991.701 27.9629C992.502 28.7832 992.902 29.8281 992.902 31.0977C992.902 32.3477 992.492 33.3926 991.672 34.2324C990.871 35.0527 989.797 35.4629 988.449 35.4629C987.062 35.4629 985.959 35.0527 985.139 34.2324C984.338 33.3926 983.938 32.3477 983.938 31.0977ZM1010.51 64.7598C1011.27 64.7598 1011.93 64.6035 1012.47 64.291C1013.04 63.9785 1013.47 63.4707 1013.76 62.7676C1014.05 62.0645 1014.21 61.1562 1014.23 60.043H1021.94C1021.94 62.4258 1021.43 64.4863 1020.41 66.2246C1019.42 67.9434 1018.07 69.2715 1016.37 70.209C1014.69 71.127 1012.79 71.5859 1010.66 71.5859C1008.53 71.5859 1006.67 71.2441 1005.09 70.5605C1003.51 69.877 1002.2 68.8809 1001.16 67.5723C1000.15 66.2637 999.377 64.6719 998.85 62.7969C998.342 60.9023 998.088 58.7344 998.088 56.293V53.9785C998.088 51.5762 998.342 49.4277 998.85 47.5332C999.377 45.6387 1000.15 44.0371 1001.16 42.7285C1002.2 41.4199 1003.5 40.4238 1005.06 39.7402C1006.64 39.0566 1008.5 38.7148 1010.63 38.7148C1012.91 38.7148 1014.89 39.1934 1016.57 40.1504C1018.25 41.0879 1019.56 42.4746 1020.5 44.3105C1021.46 46.1465 1021.94 48.4121 1021.94 51.1074H1014.23C1014.21 49.8965 1014.06 48.8906 1013.79 48.0898C1013.54 47.2695 1013.14 46.6445 1012.59 46.2148C1012.06 45.7656 1011.36 45.541 1010.48 45.541C1009.56 45.541 1008.82 45.7363 1008.25 46.127C1007.71 46.498 1007.29 47.0449 1006.99 47.7676C1006.72 48.4707 1006.54 49.3496 1006.44 50.4043C1006.34 51.459 1006.29 52.6504 1006.29 53.9785V56.293C1006.29 57.7188 1006.33 58.959 1006.41 60.0137C1006.51 61.0488 1006.69 61.9277 1006.96 62.6504C1007.26 63.3535 1007.68 63.8809 1008.22 64.2324C1008.79 64.584 1009.55 64.7598 1010.51 64.7598Z" fill="white"/>
</svg>
