<svg width="512" height="512" viewBox="0 0 512 512" fill="none" xmlns="http://www.w3.org/2000/svg">
<path fill-rule="evenodd" clip-rule="evenodd" d="M256 4L45.5385 126.769L256 249.538L466.462 126.769L256 4ZM238.462 495.077L28 371.124V155.269L238.462 280.231V495.077ZM273.538 495.077V280.231L484 155.269V371.124L273.538 495.077ZM435.802 309.13L340 416.59V290L435.802 309.13ZM175.809 297.277C177.823 296.132 181.088 298.074 183.101 301.615L199.595 330.62C201.609 334.161 201.609 337.96 199.595 339.105L183.101 348.484C181.088 349.629 177.823 347.687 175.809 344.146C173.795 340.605 173.795 336.806 175.809 335.66L183.5 331.287L166.676 321.278C163 319.091 159.38 317.993 156.139 318.083C152.898 318.173 150.135 319.448 148.095 321.794L145.261 325.056C143.682 326.874 140.48 325.715 138.111 322.468C135.741 319.22 135.1 315.114 136.679 313.296L139.514 310.033L139.515 310.032C142.496 306.603 146.535 304.74 151.273 304.608C156.011 304.477 161.302 306.081 166.676 309.278L183.5 319.287L175.809 305.762C173.795 302.221 173.795 298.422 175.809 297.277ZM58.8436 251.124C58.8436 247.81 61.1522 246.498 64 248.192L93.2727 265.607C98.6468 268.805 103.938 273.496 108.676 279.266C113.414 285.035 117.453 291.704 120.434 298.68L120.434 298.681L134.199 330.895C134.244 330.997 134.287 331.099 134.329 331.201L148.095 363.42C150.135 368.193 152.898 372.755 156.139 376.702C159.38 380.648 163 383.858 166.676 386.045L183.5 396.054L175.809 382.529C173.795 378.988 173.795 375.189 175.809 374.044C177.823 372.899 181.088 374.841 183.101 378.383L199.595 407.387C201.609 410.928 201.609 414.727 199.595 415.872L183.101 425.252C181.088 426.397 177.823 424.454 175.809 420.913C173.795 417.372 173.795 413.573 175.809 412.428L183.5 408.054L166.676 398.045C161.302 394.848 156.011 390.156 151.273 384.387C146.535 378.617 142.496 371.949 139.515 364.972L139.514 364.972L129.974 342.643L120.434 353.62L120.434 353.621C117.453 357.05 113.414 358.913 108.676 359.044C103.938 359.176 98.6468 357.572 93.2727 354.375L64 336.959C61.1522 335.265 58.8436 331.205 58.8436 327.891C58.8436 324.578 61.1522 323.265 64 324.959L93.2726 342.375C96.9489 344.562 100.568 345.659 103.81 345.569C107.051 345.479 109.814 344.205 111.853 341.859L111.854 341.859L123.777 328.139L111.854 300.232L111.853 300.232C109.814 295.459 107.051 290.897 103.81 286.951C100.568 283.004 96.949 279.795 93.2726 277.607L64 260.192C61.1522 258.498 58.8436 254.438 58.8436 251.124ZM156.857 133.664C157.159 137.658 159.02 141.54 162.174 144.757C163.832 146.441 165.806 147.909 168.02 149.106L176.238 153.565C179.908 155.551 184.2 156.593 188.508 156.542C192.817 156.492 196.923 155.352 200.248 153.284L280.052 103.931C281.236 103.186 282.718 102.794 284.262 102.817C285.806 102.841 287.324 103.278 288.576 104.059L321.109 124.67C323.573 126.227 326.57 127.105 329.624 127.165C332.679 127.224 335.615 126.462 337.968 124.999L357.005 113.225C358.112 112.54 358.995 111.652 359.587 110.628C360.178 109.605 360.463 108.473 360.418 107.32C360.374 106.167 360.001 105.023 359.33 103.976C358.658 102.929 357.705 102.007 356.544 101.28L317.809 77.0653C315.346 75.52 312.356 74.651 309.311 74.5955C306.266 74.54 303.34 75.3011 300.993 76.7587L218.173 127.977C217.056 128.679 215.673 129.068 214.22 129.089C212.767 129.11 211.318 128.763 210.077 128.096L190.611 117.531C186.787 115.464 182.316 114.38 177.828 114.433C173.34 114.487 169.062 115.674 165.599 117.828C162.648 119.655 160.317 122.044 158.797 124.797C157.278 127.55 156.612 130.589 156.857 133.664Z" fill="white"/>
</svg>
