<svg width="512" height="512" viewBox="0 0 512 512" fill="none" xmlns="http://www.w3.org/2000/svg">
<path d="M208 440H160C155.757 440 151.687 438.314 148.686 435.314C145.686 432.313 144 428.243 144 424V104C144 99.7565 145.686 95.6869 148.686 92.6863C151.687 89.6857 155.757 88 160 88H208C212.243 88 216.313 89.6857 219.314 92.6863C222.314 95.6869 224 99.7565 224 104V424C224 428.243 222.314 432.313 219.314 435.314C216.313 438.314 212.243 440 208 440ZM352 440H304C299.757 440 295.687 438.314 292.686 435.314C289.686 432.313 288 428.243 288 424V104C288 99.7565 289.686 95.6869 292.686 92.6863C295.687 89.6857 299.757 88 304 88H352C356.243 88 360.313 89.6857 363.314 92.6863C366.314 95.6869 368 99.7565 368 104V424C368 428.243 366.314 432.313 363.314 435.314C360.313 438.314 356.243 440 352 440Z" fill="black"/>
</svg>
