<svg width="512" height="512" viewBox="0 0 512 512" fill="none" xmlns="http://www.w3.org/2000/svg">
<path fill-rule="evenodd" clip-rule="evenodd" d="M247 384.8L115 464V80L435 272L381.667 304H247V384.8Z" fill="black"/>
<path d="M274.822 377.006L288.103 375.395C288.526 378.78 289.666 381.368 291.521 383.158C293.377 384.949 295.623 385.844 298.259 385.844C301.091 385.844 303.468 384.77 305.388 382.621C307.341 380.473 308.318 377.576 308.318 373.93C308.318 370.479 307.39 367.745 305.535 365.727C303.679 363.708 301.417 362.699 298.748 362.699C296.99 362.699 294.89 363.041 292.449 363.725L293.962 352.543C297.673 352.641 300.505 351.843 302.459 350.15C304.412 348.425 305.388 346.146 305.388 343.314C305.388 340.906 304.672 338.985 303.24 337.553C301.808 336.12 299.903 335.404 297.527 335.404C295.183 335.404 293.181 336.218 291.521 337.846C289.861 339.473 288.852 341.85 288.494 344.975L275.847 342.826C276.726 338.497 278.044 335.046 279.802 332.475C281.593 329.87 284.067 327.836 287.224 326.371C290.414 324.874 293.979 324.125 297.918 324.125C304.656 324.125 310.059 326.273 314.128 330.57C317.481 334.086 319.158 338.057 319.158 342.484C319.158 348.767 315.724 353.78 308.855 357.523C312.957 358.402 316.228 360.372 318.669 363.432C321.143 366.492 322.38 370.186 322.38 374.516C322.38 380.798 320.085 386.153 315.496 390.58C310.906 395.007 305.193 397.221 298.357 397.221C291.879 397.221 286.508 395.365 282.244 391.654C277.979 387.911 275.505 383.028 274.822 377.006ZM354.168 324.125C361.101 324.125 366.521 326.599 370.427 331.547C375.082 337.406 377.41 347.123 377.41 360.697C377.41 374.239 375.066 383.972 370.378 389.896C366.505 394.779 361.101 397.221 354.168 397.221C347.201 397.221 341.586 394.551 337.322 389.213C333.058 383.842 330.925 374.288 330.925 360.551C330.925 347.074 333.269 337.374 337.957 331.449C341.83 326.566 347.234 324.125 354.168 324.125ZM354.168 335.502C352.507 335.502 351.026 336.039 349.724 337.113C348.422 338.155 347.413 340.043 346.697 342.777C345.753 346.326 345.281 352.299 345.281 360.697C345.281 369.096 345.704 374.874 346.55 378.031C347.397 381.156 348.455 383.24 349.724 384.281C351.026 385.323 352.507 385.844 354.168 385.844C355.828 385.844 357.309 385.323 358.611 384.281C359.913 383.207 360.922 381.303 361.638 378.568C362.582 375.053 363.054 369.096 363.054 360.697C363.054 352.299 362.631 346.537 361.785 343.412C360.938 340.255 359.864 338.155 358.562 337.113C357.293 336.039 355.828 335.502 354.168 335.502ZM384.734 381.205L398.503 379.105C399.089 381.775 400.278 383.809 402.068 385.209C403.858 386.576 406.365 387.26 409.587 387.26C413.136 387.26 415.805 386.609 417.595 385.307C418.8 384.395 419.402 383.174 419.402 381.645C419.402 380.603 419.076 379.74 418.425 379.057C417.742 378.406 416.212 377.803 413.835 377.25C402.768 374.809 395.753 372.579 392.791 370.561C388.689 367.761 386.638 363.871 386.638 358.891C386.638 354.398 388.412 350.622 391.96 347.562C395.509 344.503 401.01 342.973 408.464 342.973C415.561 342.973 420.834 344.128 424.285 346.439C427.735 348.751 430.112 352.169 431.414 356.693L418.474 359.086C417.921 357.068 416.863 355.521 415.3 354.447C413.77 353.373 411.573 352.836 408.709 352.836C405.095 352.836 402.507 353.34 400.945 354.35C399.903 355.066 399.382 355.993 399.382 357.133C399.382 358.109 399.838 358.939 400.75 359.623C401.987 360.535 406.251 361.82 413.543 363.48C420.867 365.141 425.977 367.175 428.875 369.584C431.739 372.025 433.171 375.427 433.171 379.789C433.171 384.542 431.186 388.627 427.214 392.045C423.243 395.463 417.367 397.172 409.587 397.172C402.524 397.172 396.925 395.74 392.791 392.875C388.689 390.01 386.003 386.12 384.734 381.205Z" fill="black"/>
</svg>
